<?xml version="1.0" encoding="utf-8"?>
<!-- Generator: Adobe Illustrator 16.0.0, SVG Export Plug-In . SVG Version: 6.00 Build 0)  -->
<!DOCTYPE svg PUBLIC "-//W3C//DTD SVG 1.1//EN" "http://www.w3.org/Graphics/SVG/1.1/DTD/svg11.dtd">
<svg version="1.1" id="Layer_1" xmlns="http://www.w3.org/2000/svg" xmlns:xlink="http://www.w3.org/1999/xlink" x="0px" y="0px"
	 width="162.14px" height="162.14px" viewBox="0 0 162.14 162.14" style="enable-background:new 0 0 162.14 162.14;"
	 xml:space="preserve">
<style type="text/css">
<![CDATA[
	.st0{fill:#48753A;}
	.st1{opacity:0.3;fill:#2A3D4F;}
	.st2{fill:#E1EBF4;}
	.st3{fill:#E2D2CA;}
	.st4{fill:#E2E9FB;}
	.st5{fill:#E6E6E6;}
	.st6{fill:#E6EFF2;}
	.st7{fill:#E88080;}
	.st8{fill:#819BEA;}
	.st9{fill:#B0D4FF;}
	.st10{fill:#81A0EA;}
	.st11{fill:none;stroke:#000000;stroke-width:8.192;stroke-linecap:round;stroke-linejoin:round;stroke-miterlimit:10;}
	.st12{fill:#82522F;}
	.st13{opacity:0.39;}
	.st14{opacity:0.49;}
	.st15{opacity:0.5;fill:#227FBC;}
	.st16{fill:none;stroke:#A33D3D;stroke-width:2;stroke-miterlimit:10;}
	.st17{fill:#B5453C;}
	.st18{fill:#B59074;}
	.st19{fill:#876455;}
	.st20{fill:#877670;}
	.st21{fill:#EAD8CF;}
	.st22{fill:#EB3B58;}
	.st23{fill:#88CFCA;}
	.st24{fill:#B8C9F5;}
	.st25{fill:#1E3A47;}
	.st26{fill:#ED7D2B;}
	.st27{fill:#ED8B8B;}
	.st28{fill:#ED975D;}
	.st29{fill:#EEA886;}
	.st30{fill:#EFB4B4;}
	.st31{fill:#538742;}
	.st32{fill:#BBE0F8;}
	.st33{fill:#8DBDE3;}
	.st34{fill:#F09F9C;}
	.st35{fill:#BFB2AC;}
	.st36{fill:#233862;}
	.st37{fill:#F2CCAA;}
	.st38{opacity:0.5;fill:#FFB294;}
	.st39{fill:#254380;}
	.st40{fill:#F5F7FF;}
	.st41{fill:#F5FAFF;}
	.st42{fill:#5B3660;}
	.st43{fill:#F6F6F6;}
	.st44{fill:#F7A76B;}
	.st45{fill:#F7B2B2;}
	.st46{fill:#292C47;}
	.st47{fill:#5E5854;}
	.st48{fill:#F99746;}
	.st49{fill:#F9DDBF;}
	.st50{fill:#F9F5F2;}
	.st51{fill:#907596;}
	.st52{fill:#914C4C;}
	.st53{fill:#918783;}
	.st54{fill:#925E2E;}
	.st55{fill:#92D2CE;}
	.st56{fill:url(#SVGID_3_);}
	.st57{fill:url(#SVGID_4_);}
	.st58{fill:url(#SVGID_5_);}
	.st59{fill:url(#SVGID_6_);}
	.st60{fill:url(#SVGID_7_);}
	.st61{fill:url(#SVGID_8_);}
	.st62{fill:url(#SVGID_9_);}
	.st63{fill:#95C0F4;}
	.st64{fill:#2B478B;}
	.st65{fill:#C67B47;}
	.st66{fill:#FA6964;}
	.st67{fill:#C6D0E9;}
	.st68{fill:#97A43C;}
	.st69{fill:#C76B98;}
	.st70{fill:#FCBAC0;}
	.st71{fill:#C9C9C9;}
	.st72{fill:#FFAA55;}
	.st73{fill:#FFB27D;}
	.st74{fill:#FFB294;}
	.st75{fill:#FFC655;}
	.st76{fill:#FFFFFF;}
	.st77{fill:#63C7BB;}
	.st78{fill:#CAE6F7;}
	.st79{fill:#9BA1A7;}
	.st80{fill:#CBBACE;}
	.st81{fill:#CCBDB7;}
	.st82{fill:#9E633A;}
	.st83{fill:#CE6161;}
	.st84{opacity:0.7;fill:#FFFFFF;}
	.st85{fill:#323657;}
	.st86{fill:#333333;}
	.st87{fill:#33485B;}
	.st88{fill:#343C6B;}
	.st89{fill:#36572B;}
	.st90{fill:#39B54A;}
	.st91{fill:#007CF4;}
	.st92{fill:#050542;}
	.st93{fill:#D44040;}
	.st94{fill:#D4EEFF;}
	.st95{fill:#3A3F47;}
	.st96{fill:#D68080;}
	.st97{fill:url(#SVGID_10_);}
	.st98{fill:url(#SVGID_11_);}
	.st99{fill:url(#SVGID_12_);}
	.st100{fill:url(#SVGID_13_);}
	.st101{fill:url(#SVGID_14_);}
	.st102{fill:url(#SVGID_15_);}
	.st103{fill:url(#SVGID_16_);}
	.st104{fill:url(#SVGID_17_);}
	.st105{fill:url(#SVGID_18_);}
	.st106{fill:url(#SVGID_19_);}
	.st107{fill:url(#SVGID_20_);}
	.st108{fill:url(#SVGID_21_);}
	.st109{fill:url(#SVGID_22_);}
	.st110{fill:url(#SVGID_23_);}
	.st111{fill:url(#SVGID_24_);}
	.st112{fill:url(#SVGID_25_);}
	.st113{fill:url(#SVGID_26_);}
	.st114{fill:url(#SVGID_27_);}
	.st115{fill:url(#SVGID_28_);}
	.st116{fill:url(#SVGID_31_);}
	.st117{fill:url(#SVGID_32_);}
	.st118{fill:url(#SVGID_33_);}
	.st119{fill:url(#SVGID_34_);}
	.st120{fill:url(#SVGID_35_);}
	.st121{fill:url(#SVGID_42_);}
	.st122{fill:#706865;}
	.st123{fill:none;stroke:#1F191A;stroke-width:2.3477;stroke-linecap:round;stroke-linejoin:round;stroke-miterlimit:10;}
	.st124{fill:#715346;}
	.st125{clip-path:url(#SVGID_37_);}
	.st126{clip-path:url(#SVGID_39_);}
	.st127{clip-path:url(#SVGID_41_);}
	.st128{fill:#72C4F4;}
	.st129{fill:#739EBA;}
	.st130{fill:#A33D3D;}
	.st131{fill:#0B151A;}
	.st132{fill:#DA9B5B;}
	.st133{opacity:0.5;fill:#162B35;}
	.st134{fill:#0DA5BF;}
	.st135{opacity:0.53;fill:#202021;}
	.st136{fill:#DFE1E8;}
	.st137{fill:#421D46;}
	.st138{fill:#424773;}
	.st139{fill:#445393;}
	.st140{fill:#45613C;}
]]>
</style>
<g>
	<path d="M69.69,136.5H58.1c-1.04,0-1.89-0.85-1.89-1.89c0-1.04,0.85-1.89,1.89-1.89h11.59c1.04,0,1.89,0.85,1.89,1.89
		C71.58,135.65,70.73,136.5,69.69,136.5z"/>
	<path d="M77.77,18.07H29.98c-1.04,0-1.89,0.85-1.89,1.89v47.79c0,1.04,0.85,1.89,1.89,1.89h47.79c1.04,0,1.89-0.84,1.89-1.89V19.95
		C79.66,18.91,78.81,18.07,77.77,18.07z M42.35,65.86l12.17-21.07l12.17,21.07H42.35z M59.34,45.6l-3.19-5.53
		c-0.34-0.58-0.96-0.94-1.64-0.94c-0.67,0-1.3,0.36-1.64,0.94l-5.26,9.11c-3.97-1.45-6.66-5.22-6.66-9.54
		c0-5.6,4.56-10.16,10.16-10.16c5.6,0,10.16,4.56,10.16,10.16C61.28,41.8,60.6,43.87,59.34,45.6z M75.88,65.86h-4.84l-9.68-16.77
		c2.38-2.58,3.7-5.93,3.7-9.45c0-7.69-6.25-13.94-13.94-13.94c-7.69,0-13.94,6.25-13.94,13.94c0,5.71,3.41,10.71,8.53,12.85
		l-7.72,13.38h-6.12V21.84h44.02V65.86z"/>
	<path d="M77.77,76.88H29.98c-1.04,0-1.89,0.85-1.89,1.89v50.14c0,1.04,0.85,1.89,1.89,1.89s1.89-0.85,1.89-1.89V80.66h44.02v62.04
		H31.87v-6.15c0-1.04-0.85-1.89-1.89-1.89s-1.89,0.85-1.89,1.89v8.04c0,1.04,0.85,1.89,1.89,1.89h47.79c1.04,0,1.89-0.85,1.89-1.89
		V78.77C79.66,77.73,78.81,76.88,77.77,76.88z"/>
	<path d="M38.06,90.65h11.59c1.04,0,1.89-0.85,1.89-1.89c0-1.04-0.85-1.89-1.89-1.89H38.06c-1.04,0-1.89,0.85-1.89,1.89
		C36.17,89.8,37.01,90.65,38.06,90.65z"/>
	<path d="M38.06,98.96h31.63c1.04,0,1.89-0.85,1.89-1.89c0-1.04-0.84-1.89-1.89-1.89H38.06c-1.04,0-1.89,0.84-1.89,1.89
		C36.17,98.12,37.01,98.96,38.06,98.96z"/>
	<path d="M38.06,108.41h31.63c1.04,0,1.89-0.85,1.89-1.89c0-1.04-0.84-1.89-1.89-1.89H38.06c-1.04,0-1.89,0.84-1.89,1.89
		C36.17,107.56,37.01,108.41,38.06,108.41z"/>
	<path d="M38.06,117.86h31.63c1.04,0,1.89-0.85,1.89-1.89c0-1.04-0.84-1.89-1.89-1.89H38.06c-1.04,0-1.89,0.85-1.89,1.89
		C36.17,117.01,37.01,117.86,38.06,117.86z"/>
	<path d="M38.06,127.3h31.63c1.04,0,1.89-0.85,1.89-1.89c0-1.04-0.84-1.89-1.89-1.89H38.06c-1.04,0-1.89,0.85-1.89,1.89
		C36.17,126.46,37.01,127.3,38.06,127.3z"/>
	<path d="M134.95,17.51H87.16c-1.04,0-1.89,0.85-1.89,1.89v65.82c0,1.04,0.85,1.89,1.89,1.89h12.39c1.04,0,1.89-0.85,1.89-1.89
		s-0.85-1.89-1.89-1.89h-10.5V21.29h44.02v62.04h-25.5c-1.04,0-1.89,0.85-1.89,1.89s0.85,1.89,1.89,1.89h27.39
		c1.04,0,1.89-0.85,1.89-1.89V19.4C136.84,18.35,136,17.51,134.95,17.51z"/>
	<path d="M95.24,31.27h11.59c1.04,0,1.89-0.84,1.89-1.89c0-1.04-0.85-1.89-1.89-1.89H95.24c-1.04,0-1.89,0.85-1.89,1.89
		C93.35,30.43,94.2,31.27,95.24,31.27z"/>
	<path d="M126.87,73.34h-11.59c-1.04,0-1.89,0.85-1.89,1.89c0,1.04,0.85,1.89,1.89,1.89h11.59c1.04,0,1.89-0.85,1.89-1.89
		C128.76,74.19,127.92,73.34,126.87,73.34z"/>
	<path d="M95.24,39.58h31.63c1.04,0,1.89-0.84,1.89-1.89c0-1.04-0.85-1.89-1.89-1.89H95.24c-1.04,0-1.89,0.85-1.89,1.89
		C93.35,38.74,94.2,39.58,95.24,39.58z"/>
	<path d="M95.24,49.03h31.63c1.04,0,1.89-0.84,1.89-1.89c0-1.04-0.85-1.89-1.89-1.89H95.24c-1.04,0-1.89,0.85-1.89,1.89
		C93.35,48.19,94.2,49.03,95.24,49.03z"/>
	<path d="M95.24,58.48h31.63c1.04,0,1.89-0.85,1.89-1.89c0-1.04-0.85-1.89-1.89-1.89H95.24c-1.04,0-1.89,0.85-1.89,1.89
		C93.35,57.63,94.2,58.48,95.24,58.48z"/>
	<path d="M95.24,67.92h31.63c1.04,0,1.89-0.85,1.89-1.89c0-1.04-0.85-1.89-1.89-1.89H95.24c-1.04,0-1.89,0.85-1.89,1.89
		C93.35,67.08,94.2,67.92,95.24,67.92z"/>
	<path d="M134.95,94.91H87.16c-1.04,0-1.89,0.85-1.89,1.89v47.79c0,1.04,0.85,1.89,1.89,1.89h47.79c1.04,0,1.89-0.85,1.89-1.89V96.8
		C136.84,95.75,136,94.91,134.95,94.91z M133.06,142.7H89.05V98.69h44.02V142.7z"/>
	<path d="M93.41,119.58c0,1.04,0.85,1.89,1.89,1.89h5.37c1.04,0,1.89-0.85,1.89-1.89v-2.84h2.84v10.06h-1.24
		c-1.04,0-1.89,0.85-1.89,1.89v5.37c0,1.04,0.85,1.89,1.89,1.89h13.78c1.04,0,1.89-0.84,1.89-1.89v-5.37c0-1.04-0.85-1.89-1.89-1.89
		h-1.24v-10.06h2.84v2.84c0,1.04,0.85,1.89,1.89,1.89h5.37c1.04,0,1.89-0.85,1.89-1.89v-12.26c0-1.04-0.85-1.89-1.89-1.89H95.3
		c-1.04,0-1.89,0.85-1.89,1.89v7.53c0,0.02,0,0.04,0,0.05V119.58z M97.19,109.21h27.73v8.48h-1.59v-2.84c0-1.04-0.85-1.89-1.89-1.89
		h-6.62c-1.04,0-1.89,0.85-1.89,1.89v13.84c0,1.04,0.85,1.89,1.89,1.89h1.24v1.59h-10v-1.59h1.24c1.04,0,1.89-0.85,1.89-1.89v-13.84
		c0-1.04-0.85-1.89-1.89-1.89h-6.62c-1.04,0-1.89,0.85-1.89,1.89v2.84h-1.59v-2.84c0-0.02,0-0.04,0-0.05V109.21z"/>
</g>
</svg>
