<?xml version="1.0" encoding="utf-8"?>
<!-- Generator: Adobe Illustrator 16.0.0, SVG Export Plug-In . SVG Version: 6.00 Build 0)  -->
<!DOCTYPE svg PUBLIC "-//W3C//DTD SVG 1.1//EN" "http://www.w3.org/Graphics/SVG/1.1/DTD/svg11.dtd">
<svg version="1.1" id="Layer_1" xmlns="http://www.w3.org/2000/svg" xmlns:xlink="http://www.w3.org/1999/xlink" x="0px" y="0px"
	 width="162.14px" height="162.14px" viewBox="0 0 162.14 162.14" style="enable-background:new 0 0 162.14 162.14;"
	 xml:space="preserve">
<style type="text/css">
<![CDATA[
	.st0{fill:#48753A;}
	.st1{opacity:0.3;fill:#2A3D4F;}
	.st2{fill:#E1EBF4;}
	.st3{fill:#E2D2CA;}
	.st4{fill:#E2E9FB;}
	.st5{fill:#E6E6E6;}
	.st6{fill:#E6EFF2;}
	.st7{fill:#E88080;}
	.st8{fill:#819BEA;}
	.st9{fill:#B0D4FF;}
	.st10{fill:#81A0EA;}
	.st11{fill:none;stroke:#000000;stroke-width:8.192;stroke-linecap:round;stroke-linejoin:round;stroke-miterlimit:10;}
	.st12{fill:#82522F;}
	.st13{opacity:0.39;}
	.st14{opacity:0.49;}
	.st15{opacity:0.5;fill:#227FBC;}
	.st16{fill:none;stroke:#A33D3D;stroke-width:2;stroke-miterlimit:10;}
	.st17{fill:#B5453C;}
	.st18{fill:#B59074;}
	.st19{fill:#876455;}
	.st20{fill:#877670;}
	.st21{fill:#EAD8CF;}
	.st22{fill:#EB3B58;}
	.st23{fill:#88CFCA;}
	.st24{fill:#B8C9F5;}
	.st25{fill:#1E3A47;}
	.st26{fill:#ED7D2B;}
	.st27{fill:#ED8B8B;}
	.st28{fill:#ED975D;}
	.st29{fill:#EEA886;}
	.st30{fill:#EFB4B4;}
	.st31{fill:#538742;}
	.st32{fill:#BBE0F8;}
	.st33{fill:#8DBDE3;}
	.st34{fill:#F09F9C;}
	.st35{fill:#BFB2AC;}
	.st36{fill:#233862;}
	.st37{fill:#F2CCAA;}
	.st38{opacity:0.5;fill:#FFB294;}
	.st39{fill:#254380;}
	.st40{fill:#F5F7FF;}
	.st41{fill:#F5FAFF;}
	.st42{fill:#5B3660;}
	.st43{fill:#F6F6F6;}
	.st44{fill:#F7A76B;}
	.st45{fill:#F7B2B2;}
	.st46{fill:#292C47;}
	.st47{fill:#5E5854;}
	.st48{fill:#F99746;}
	.st49{fill:#F9DDBF;}
	.st50{fill:#F9F5F2;}
	.st51{fill:#907596;}
	.st52{fill:#914C4C;}
	.st53{fill:#918783;}
	.st54{fill:#925E2E;}
	.st55{fill:#92D2CE;}
	.st56{fill:url(#SVGID_3_);}
	.st57{fill:url(#SVGID_4_);}
	.st58{fill:url(#SVGID_5_);}
	.st59{fill:url(#SVGID_6_);}
	.st60{fill:url(#SVGID_7_);}
	.st61{fill:url(#SVGID_8_);}
	.st62{fill:url(#SVGID_9_);}
	.st63{fill:#95C0F4;}
	.st64{fill:#2B478B;}
	.st65{fill:#C67B47;}
	.st66{fill:#FA6964;}
	.st67{fill:#C6D0E9;}
	.st68{fill:#97A43C;}
	.st69{fill:#C76B98;}
	.st70{fill:#FCBAC0;}
	.st71{fill:#C9C9C9;}
	.st72{fill:#FFAA55;}
	.st73{fill:#FFB27D;}
	.st74{fill:#FFB294;}
	.st75{fill:#FFC655;}
	.st76{fill:#FFFFFF;}
	.st77{fill:#63C7BB;}
	.st78{fill:#CAE6F7;}
	.st79{fill:#9BA1A7;}
	.st80{fill:#CBBACE;}
	.st81{fill:#CCBDB7;}
	.st82{fill:#9E633A;}
	.st83{fill:#CE6161;}
	.st84{opacity:0.7;fill:#FFFFFF;}
	.st85{fill:#323657;}
	.st86{fill:#333333;}
	.st87{fill:#33485B;}
	.st88{fill:#343C6B;}
	.st89{fill:#36572B;}
	.st90{fill:#39B54A;}
	.st91{fill:#007CF4;}
	.st92{fill:#050542;}
	.st93{fill:#D44040;}
	.st94{fill:#D4EEFF;}
	.st95{fill:#3A3F47;}
	.st96{fill:#D68080;}
	.st97{fill:url(#SVGID_10_);}
	.st98{fill:url(#SVGID_11_);}
	.st99{fill:url(#SVGID_12_);}
	.st100{fill:url(#SVGID_13_);}
	.st101{fill:url(#SVGID_14_);}
	.st102{fill:url(#SVGID_15_);}
	.st103{fill:url(#SVGID_16_);}
	.st104{fill:url(#SVGID_17_);}
	.st105{fill:url(#SVGID_18_);}
	.st106{fill:url(#SVGID_19_);}
	.st107{fill:url(#SVGID_20_);}
	.st108{fill:url(#SVGID_21_);}
	.st109{fill:url(#SVGID_22_);}
	.st110{fill:url(#SVGID_23_);}
	.st111{fill:url(#SVGID_24_);}
	.st112{fill:url(#SVGID_25_);}
	.st113{fill:url(#SVGID_26_);}
	.st114{fill:url(#SVGID_27_);}
	.st115{fill:url(#SVGID_28_);}
	.st116{fill:url(#SVGID_31_);}
	.st117{fill:url(#SVGID_32_);}
	.st118{fill:url(#SVGID_33_);}
	.st119{fill:url(#SVGID_34_);}
	.st120{fill:url(#SVGID_35_);}
	.st121{fill:url(#SVGID_42_);}
	.st122{fill:#706865;}
	.st123{fill:none;stroke:#1F191A;stroke-width:2.3477;stroke-linecap:round;stroke-linejoin:round;stroke-miterlimit:10;}
	.st124{fill:#715346;}
	.st125{clip-path:url(#SVGID_37_);}
	.st126{clip-path:url(#SVGID_39_);}
	.st127{clip-path:url(#SVGID_41_);}
	.st128{fill:#72C4F4;}
	.st129{fill:#739EBA;}
	.st130{fill:#A33D3D;}
	.st131{fill:#0B151A;}
	.st132{fill:#DA9B5B;}
	.st133{opacity:0.5;fill:#162B35;}
	.st134{fill:#0DA5BF;}
	.st135{opacity:0.53;fill:#202021;}
	.st136{fill:#DFE1E8;}
	.st137{fill:#421D46;}
	.st138{fill:#424773;}
	.st139{fill:#445393;}
	.st140{fill:#45613C;}
]]>
</style>
<g transform="translate(1 1)">
	<g>
		<g>
			<path d="M66.71,23.45c1.26,0,2.1-0.84,2.1-2.1v-6.29c0-1.26-0.84-2.1-2.1-2.1c-1.26,0-2.1,0.84-2.1,2.1v6.29
				C64.61,22.61,65.45,23.45,66.71,23.45z"/>
			<path d="M43.86,38.12h6.29c1.05,0,2.1-0.84,2.1-2.1c0-1.26-0.84-2.1-2.1-2.1h-6.29c-1.26,0-2.1,0.84-2.1,2.1
				C41.77,37.28,42.61,38.12,43.86,38.12z"/>
			<path d="M79.28,36.03c0,1.26,0.84,2.1,2.1,2.1h6.29c1.05,0,2.1-0.84,2.1-2.1c0-1.26-0.84-2.1-2.1-2.1h-6.29
				C80.12,33.93,79.28,34.77,79.28,36.03z"/>
			<path d="M77.19,27.64c0.63,0,1.05-0.21,1.47-0.63l4.19-4.19c0.84-0.84,0.84-2.1,0-2.93c-0.84-0.84-2.1-0.84-2.93,0l-4.19,4.19
				c-0.84,0.84-0.84,2.1,0,2.93C76.14,27.43,76.56,27.64,77.19,27.64z"/>
			<path d="M52.88,27.01c0.42,0.42,0.84,0.63,1.47,0.63c0.42,0,1.05-0.21,1.47-0.63c0.84-0.84,0.84-2.1,0-2.93l-4.19-4.19
				c-0.84-0.84-2.1-0.84-2.93,0c-0.84,0.84-0.84,2.1,0,2.93L52.88,27.01z"/>
			<path d="M109.67,69.56c-1.89,0-3.77,0.63-5.24,1.68v-0.63c0-5.24-4.19-9.43-9.43-9.43c-1.89,0-3.77,0.63-5.24,1.68v-0.63
				c0-5.24-4.19-9.43-9.43-9.43c-1.89,0-3.77,0.63-5.24,1.68V37.28c0-5.24-4.19-9.64-9.43-9.64c-5.24,0-9.43,4.4-9.43,9.64v41.5
				c-4.4-6.5-13.2-9.85-19.91-7.13c-1.05,0.42-1.89,1.05-2.52,1.26c-2.93,2.1-2.72,4.4-2.72,5.24c-0.21,1.26,0,1.47,2.72,4.61
				c3.14,3.77,9.85,11.74,14.04,19.7c0.21,0.21,5.03,7.96,10.48,14.04v5.45c0,9.85,7.75,16.77,18.86,16.77h18.65
				c8.8,0,15.72-5.03,17.4-12.79c0.46-2.17,0.93-3.42,1.31-4.1c0.12-0.17,0.24-0.34,0.37-0.51c1.89-2.1,4.19-7.34,4.19-14.46V78.99
				C119.11,73.75,114.91,69.56,109.67,69.56z M95.84,134.53H77.19c-7.34,0-14.67-3.98-14.67-12.57v-0.57
				c0.6,0.63,1.22,1.24,1.89,1.82c0.21,0.21,0.84,0.42,1.26,0.42c0.63,0,1.05-0.42,1.47-0.84c0.84-0.84,0.63-2.1-0.21-2.93
				c-1.47-1.26-2.51-2.72-3.77-4.19c-0.21-0.42-0.63-1.05-1.05-1.47c-0.17-0.23-0.42-0.42-0.69-0.54c-5.08-5.82-10-13.5-10-13.5
				c-4.4-8.17-11.32-16.35-14.46-20.33c-0.63-0.63-1.26-1.47-1.68-1.89c0-0.42,0-0.84,0.84-1.47c0.84-0.42,1.26-0.63,1.68-0.84
				c4.61-1.89,12.37,0.63,15.72,6.5l2.65,4.42c0.03,0.28,0.12,0.55,0.28,0.82l2.1,4.19c0.42,0.63,1.05,1.05,1.89,1.05
				c0.42,0,0.84,0,0.84-0.21c1.05-0.42,1.47-1.68,0.84-2.72l-1.68-3.35V37.28c0-2.93,2.52-5.45,5.24-5.45
				c2.93,0,5.24,2.51,5.24,5.45v24.52c0,0,0,0.21,0,0.42v1.05v25.15c0,1.26,0.84,2.1,2.1,2.1s2.1-0.84,2.1-2.1V63.27v-1.47
				c0.21-2.72,2.52-4.82,5.24-4.82c2.93,0,5.24,2.31,5.24,5.24v7.33v1.05v15.72c0,1.26,0.84,2.1,2.1,2.1c1.26,0,2.1-0.84,2.1-2.1
				V70.61c0-2.93,2.31-5.24,5.24-5.24c2.93,0,5.24,2.31,5.24,5.24v7.34v1.05v7.54c0,1.26,0.84,2.1,2.1,2.1c1.26,0,2.1-0.84,2.1-2.1
				v-7.54c0-2.93,2.31-5.24,5.24-5.24c2.93,0,5.24,2.31,5.24,5.24v27.67c0,6.36-2.01,10.5-3.07,11.86c-0.1,0.09-0.2,0.19-0.28,0.3
				c-1.26,1.68-1.68,2.31-5.66,3.35c-1.05,0.21-1.68,1.47-1.47,2.52c0.42,0.84,1.26,1.47,2.1,1.47c0.21,0,0.42,0,0.42,0.21
				c0.71-0.19,1.35-0.38,1.93-0.58C107.14,132.18,100.91,134.53,95.84,134.53z"/>
		</g>
	</g>
</g>
</svg>
