<?xml version="1.0" encoding="utf-8"?>
<!-- Generator: Adobe Illustrator 16.0.0, SVG Export Plug-In . SVG Version: 6.00 Build 0)  -->
<!DOCTYPE svg PUBLIC "-//W3C//DTD SVG 1.1//EN" "http://www.w3.org/Graphics/SVG/1.1/DTD/svg11.dtd">
<svg version="1.1" id="Layer_1" xmlns="http://www.w3.org/2000/svg" xmlns:xlink="http://www.w3.org/1999/xlink" x="0px" y="0px"
	 width="162.14px" height="162.14px" viewBox="0 0 162.14 162.14" style="enable-background:new 0 0 162.14 162.14;"
	 xml:space="preserve">
<style type="text/css">
<![CDATA[
	.st0{fill:#48753A;}
	.st1{opacity:0.3;fill:#2A3D4F;}
	.st2{fill:#E1EBF4;}
	.st3{fill:#E2D2CA;}
	.st4{fill:#E2E9FB;}
	.st5{fill:#E6E6E6;}
	.st6{fill:#E6EFF2;}
	.st7{fill:#E88080;}
	.st8{fill:#819BEA;}
	.st9{fill:#B0D4FF;}
	.st10{fill:#81A0EA;}
	.st11{fill:none;stroke:#000000;stroke-width:8.192;stroke-linecap:round;stroke-linejoin:round;stroke-miterlimit:10;}
	.st12{fill:#82522F;}
	.st13{opacity:0.39;}
	.st14{opacity:0.49;}
	.st15{opacity:0.5;fill:#227FBC;}
	.st16{fill:none;stroke:#A33D3D;stroke-width:2;stroke-miterlimit:10;}
	.st17{fill:#B5453C;}
	.st18{fill:#B59074;}
	.st19{fill:#876455;}
	.st20{fill:#877670;}
	.st21{fill:#EAD8CF;}
	.st22{fill:#EB3B58;}
	.st23{fill:#88CFCA;}
	.st24{fill:#B8C9F5;}
	.st25{fill:#1E3A47;}
	.st26{fill:#ED7D2B;}
	.st27{fill:#ED8B8B;}
	.st28{fill:#ED975D;}
	.st29{fill:#EEA886;}
	.st30{fill:#EFB4B4;}
	.st31{fill:#538742;}
	.st32{fill:#BBE0F8;}
	.st33{fill:#8DBDE3;}
	.st34{fill:#F09F9C;}
	.st35{fill:#BFB2AC;}
	.st36{fill:#233862;}
	.st37{fill:#F2CCAA;}
	.st38{opacity:0.5;fill:#FFB294;}
	.st39{fill:#254380;}
	.st40{fill:#F5F7FF;}
	.st41{fill:#F5FAFF;}
	.st42{fill:#5B3660;}
	.st43{fill:#F6F6F6;}
	.st44{fill:#F7A76B;}
	.st45{fill:#F7B2B2;}
	.st46{fill:#292C47;}
	.st47{fill:#5E5854;}
	.st48{fill:#F99746;}
	.st49{fill:#F9DDBF;}
	.st50{fill:#F9F5F2;}
	.st51{fill:#907596;}
	.st52{fill:#914C4C;}
	.st53{fill:#918783;}
	.st54{fill:#925E2E;}
	.st55{fill:#92D2CE;}
	.st56{fill:url(#SVGID_3_);}
	.st57{fill:url(#SVGID_4_);}
	.st58{fill:url(#SVGID_5_);}
	.st59{fill:url(#SVGID_6_);}
	.st60{fill:url(#SVGID_7_);}
	.st61{fill:url(#SVGID_8_);}
	.st62{fill:url(#SVGID_9_);}
	.st63{fill:#95C0F4;}
	.st64{fill:#2B478B;}
	.st65{fill:#C67B47;}
	.st66{fill:#FA6964;}
	.st67{fill:#C6D0E9;}
	.st68{fill:#97A43C;}
	.st69{fill:#C76B98;}
	.st70{fill:#FCBAC0;}
	.st71{fill:#C9C9C9;}
	.st72{fill:#FFAA55;}
	.st73{fill:#FFB27D;}
	.st74{fill:#FFB294;}
	.st75{fill:#FFC655;}
	.st76{fill:#FFFFFF;}
	.st77{fill:#63C7BB;}
	.st78{fill:#CAE6F7;}
	.st79{fill:#9BA1A7;}
	.st80{fill:#CBBACE;}
	.st81{fill:#CCBDB7;}
	.st82{fill:#9E633A;}
	.st83{fill:#CE6161;}
	.st84{opacity:0.7;fill:#FFFFFF;}
	.st85{fill:#323657;}
	.st86{fill:#333333;}
	.st87{fill:#33485B;}
	.st88{fill:#343C6B;}
	.st89{fill:#36572B;}
	.st90{fill:#39B54A;}
	.st91{fill:#007CF4;}
	.st92{fill:#050542;}
	.st93{fill:#D44040;}
	.st94{fill:#D4EEFF;}
	.st95{fill:#3A3F47;}
	.st96{fill:#D68080;}
	.st97{fill:url(#SVGID_10_);}
	.st98{fill:url(#SVGID_11_);}
	.st99{fill:url(#SVGID_12_);}
	.st100{fill:url(#SVGID_13_);}
	.st101{fill:url(#SVGID_14_);}
	.st102{fill:url(#SVGID_15_);}
	.st103{fill:url(#SVGID_16_);}
	.st104{fill:url(#SVGID_17_);}
	.st105{fill:url(#SVGID_18_);}
	.st106{fill:url(#SVGID_19_);}
	.st107{fill:url(#SVGID_20_);}
	.st108{fill:url(#SVGID_21_);}
	.st109{fill:url(#SVGID_22_);}
	.st110{fill:url(#SVGID_23_);}
	.st111{fill:url(#SVGID_24_);}
	.st112{fill:url(#SVGID_25_);}
	.st113{fill:url(#SVGID_26_);}
	.st114{fill:url(#SVGID_27_);}
	.st115{fill:url(#SVGID_28_);}
	.st116{fill:url(#SVGID_31_);}
	.st117{fill:url(#SVGID_32_);}
	.st118{fill:url(#SVGID_33_);}
	.st119{fill:url(#SVGID_34_);}
	.st120{fill:url(#SVGID_35_);}
	.st121{fill:url(#SVGID_42_);}
	.st122{fill:#706865;}
	.st123{fill:none;stroke:#1F191A;stroke-width:2.3477;stroke-linecap:round;stroke-linejoin:round;stroke-miterlimit:10;}
	.st124{fill:#715346;}
	.st125{clip-path:url(#SVGID_37_);}
	.st126{clip-path:url(#SVGID_39_);}
	.st127{clip-path:url(#SVGID_41_);}
	.st128{fill:#72C4F4;}
	.st129{fill:#739EBA;}
	.st130{fill:#A33D3D;}
	.st131{fill:#0B151A;}
	.st132{fill:#DA9B5B;}
	.st133{opacity:0.5;fill:#162B35;}
	.st134{fill:#0DA5BF;}
	.st135{opacity:0.53;fill:#202021;}
	.st136{fill:#DFE1E8;}
	.st137{fill:#421D46;}
	.st138{fill:#424773;}
	.st139{fill:#445393;}
	.st140{fill:#45613C;}
]]>
</style>
<g>
	<path d="M111.03,44.54c-12.57,0-22.79,10.23-22.79,22.79c0,12.57,10.23,22.79,22.79,22.79c12.57,0,22.79-10.23,22.79-22.79
		C133.82,54.76,123.59,44.54,111.03,44.54z M111.03,85.98c-10.28,0-18.65-8.37-18.65-18.65c0-10.28,8.37-18.65,18.65-18.65
		s18.65,8.36,18.65,18.65C129.68,77.61,121.31,85.98,111.03,85.98z"/>
	<path d="M111.03,56.97c-5.71,0-10.36,4.65-10.36,10.36c0,5.71,4.65,10.36,10.36,10.36s10.36-4.65,10.36-10.36
		C121.39,61.62,116.74,56.97,111.03,56.97z M111.03,73.55c-3.43,0-6.22-2.79-6.22-6.22c0-3.43,2.79-6.22,6.22-6.22
		c3.43,0,6.22,2.79,6.22,6.22C117.24,70.76,114.46,73.55,111.03,73.55z"/>
	<path d="M146.25,75.06V59.6l-5.66-1.81c-0.51-1.6-1.15-3.15-1.9-4.62l2.72-5.28l-10.93-10.93l-4.94,2.54V15.53H52.15L30.22,37.46
		v77.69c-7.02,1.01-12.43,7.05-12.43,14.34c0,8,6.51,14.5,14.5,14.5h91.65l19.39-9.47l0.19-0.11c1.71-1.07,2.73-2.91,2.73-4.93
		c0-2.02-1.02-3.86-2.73-4.93l-17.99-8.8V95.16l4.94,2.54l10.93-10.93l-2.72-5.28c0.75-1.47,1.39-3.01,1.9-4.62L146.25,75.06z
		 M121.39,38.07c-0.27-0.1-0.54-0.21-0.82-0.3l-1.82-5.67H103.3l-1.82,5.67c-1.6,0.52-3.15,1.15-4.62,1.9l-5.28-2.72L80.66,47.88
		l2.72,5.28c-0.75,1.47-1.39,3.02-1.9,4.62L75.8,59.6v15.46l5.67,1.82c0.52,1.6,1.15,3.15,1.9,4.62l-2.72,5.28L91.58,97.7l5.28-2.72
		c1.47,0.75,3.02,1.39,4.62,1.9l1.82,5.67h15.46l1.82-5.67c0.28-0.09,0.54-0.2,0.82-0.3v18.4H34.36V40.39h20.72V19.67h66.31V38.07z
		 M121.39,119.13v8.29H42.65v-8.29H121.39z M42.65,131.56h78.74v8.29H42.65V131.56z M37.29,36.25L50.94,22.6v13.65H37.29z
		 M21.93,129.49c0-5.71,4.65-10.36,10.36-10.36h6.22v20.72h-6.22C26.58,139.85,21.93,135.21,21.93,129.49z M142.11,129.49
		c0,0.55-0.26,1.05-0.71,1.37l-15.87,7.75v-18.23l15.87,7.75C141.85,128.44,142.11,128.94,142.11,129.49L142.11,129.49z
		 M137.23,73.6l-0.3,1.07c-0.58,2.05-1.38,4-2.39,5.79l-0.54,0.97l2.34,4.55l-6.65,6.65l-4.55-2.34l-0.97,0.54
		c-1.8,1-3.74,1.81-5.79,2.39l-1.07,0.3l-1.56,4.88h-9.41l-1.56-4.88l-1.07-0.3c-2.05-0.58-4-1.38-5.79-2.39l-0.97-0.54l-4.55,2.34
		l-6.65-6.65l2.34-4.55l-0.54-0.97c-1-1.79-1.81-3.74-2.39-5.79l-0.3-1.07l-4.88-1.56v-9.41l4.88-1.56l0.3-1.07
		c0.58-2.04,1.38-3.99,2.39-5.8l0.54-0.97l-2.34-4.55l6.65-6.66l4.55,2.34l0.97-0.54c1.8-1,3.75-1.81,5.79-2.39l1.07-0.3l1.56-4.88
		h9.41l1.56,4.88l1.07,0.3c2.05,0.58,4,1.38,5.79,2.39l0.97,0.54l4.55-2.34l6.65,6.66l-2.34,4.55l0.54,0.97
		c1.01,1.8,1.81,3.75,2.39,5.8l0.3,1.07l4.88,1.56v9.41L137.23,73.6z"/>
	<path d="M38.51,50.75c0,3.43,2.79,6.22,6.22,6.22h20.72c1.14,0,2.07,0.93,2.07,2.07c0,1.14-0.93,2.07-2.07,2.07H55.08
		c-3.43,0-6.22,2.79-6.22,6.22c0,3.43,2.79,6.22,6.22,6.22h4.14c1.14,0,2.07,0.93,2.07,2.07s-0.93,2.07-2.07,2.07h-14.5
		c-3.43,0-6.22,2.79-6.22,6.22s2.79,6.22,6.22,6.22h29.01v-4.14H44.72c-1.14,0-2.07-0.93-2.07-2.07s0.93-2.07,2.07-2.07h14.5
		c3.43,0,6.22-2.79,6.22-6.22c0-3.43-2.79-6.22-6.22-6.22h-4.14c-1.14,0-2.07-0.93-2.07-2.07s0.93-2.07,2.07-2.07h10.36
		c3.43,0,6.22-2.79,6.22-6.22c0-3.43-2.79-6.22-6.22-6.22H44.72c-1.14,0-2.07-0.93-2.07-2.07c0-1.14,0.93-2.07,2.07-2.07H75.8v-4.14
		H44.72C41.29,44.54,38.51,47.33,38.51,50.75z"/>
	<path d="M38.51,98.41h4.14v4.14h-4.14V98.41z"/>
	<path d="M46.79,98.41H75.8v4.14H46.79V98.41z"/>
	<path d="M38.51,106.7h37.3v4.14h-37.3V106.7z"/>
	<path d="M79.95,106.7h4.14v4.14h-4.14V106.7z"/>
	<path d="M96.52,106.7h4.14v4.14h-4.14V106.7z"/>
	<path d="M88.24,106.7h4.14v4.14h-4.14V106.7z"/>
	<path d="M113.1,23.82h4.14v4.14h-4.14V23.82z"/>
	<path d="M96.52,23.82h4.14v4.14h-4.14V23.82z"/>
	<path d="M104.81,23.82h4.14v4.14h-4.14V23.82z"/>
</g>
</svg>
