<?xml version="1.0" encoding="utf-8"?>
<!-- Generator: Adobe Illustrator 16.0.0, SVG Export Plug-In . SVG Version: 6.00 Build 0)  -->
<!DOCTYPE svg PUBLIC "-//W3C//DTD SVG 1.1//EN" "http://www.w3.org/Graphics/SVG/1.1/DTD/svg11.dtd">
<svg version="1.1" id="Layer_1" xmlns="http://www.w3.org/2000/svg" xmlns:xlink="http://www.w3.org/1999/xlink" x="0px" y="0px"
	 width="162.14px" height="162.14px" viewBox="0 0 162.14 162.14" style="enable-background:new 0 0 162.14 162.14;"
	 xml:space="preserve">
<style type="text/css">
<![CDATA[
	.st0{fill:#48753A;}
	.st1{opacity:0.3;fill:#2A3D4F;}
	.st2{fill:#E1EBF4;}
	.st3{fill:#E2D2CA;}
	.st4{fill:#E2E9FB;}
	.st5{fill:#E6E6E6;}
	.st6{fill:#E6EFF2;}
	.st7{fill:#E88080;}
	.st8{fill:#819BEA;}
	.st9{fill:#B0D4FF;}
	.st10{fill:#81A0EA;}
	.st11{fill:none;stroke:#000000;stroke-width:8.192;stroke-linecap:round;stroke-linejoin:round;stroke-miterlimit:10;}
	.st12{fill:#82522F;}
	.st13{opacity:0.39;}
	.st14{opacity:0.49;}
	.st15{opacity:0.5;fill:#227FBC;}
	.st16{fill:none;stroke:#A33D3D;stroke-width:2;stroke-miterlimit:10;}
	.st17{fill:#B5453C;}
	.st18{fill:#B59074;}
	.st19{fill:#876455;}
	.st20{fill:#877670;}
	.st21{fill:#EAD8CF;}
	.st22{fill:#EB3B58;}
	.st23{fill:#88CFCA;}
	.st24{fill:#B8C9F5;}
	.st25{fill:#1E3A47;}
	.st26{fill:#ED7D2B;}
	.st27{fill:#ED8B8B;}
	.st28{fill:#ED975D;}
	.st29{fill:#EEA886;}
	.st30{fill:#EFB4B4;}
	.st31{fill:#538742;}
	.st32{fill:#BBE0F8;}
	.st33{fill:#8DBDE3;}
	.st34{fill:#F09F9C;}
	.st35{fill:#BFB2AC;}
	.st36{fill:#233862;}
	.st37{fill:#F2CCAA;}
	.st38{opacity:0.5;fill:#FFB294;}
	.st39{fill:#254380;}
	.st40{fill:#F5F7FF;}
	.st41{fill:#F5FAFF;}
	.st42{fill:#5B3660;}
	.st43{fill:#F6F6F6;}
	.st44{fill:#F7A76B;}
	.st45{fill:#F7B2B2;}
	.st46{fill:#292C47;}
	.st47{fill:#5E5854;}
	.st48{fill:#F99746;}
	.st49{fill:#F9DDBF;}
	.st50{fill:#F9F5F2;}
	.st51{fill:#907596;}
	.st52{fill:#914C4C;}
	.st53{fill:#918783;}
	.st54{fill:#925E2E;}
	.st55{fill:#92D2CE;}
	.st56{fill:url(#SVGID_3_);}
	.st57{fill:url(#SVGID_4_);}
	.st58{fill:url(#SVGID_5_);}
	.st59{fill:url(#SVGID_6_);}
	.st60{fill:url(#SVGID_7_);}
	.st61{fill:url(#SVGID_8_);}
	.st62{fill:url(#SVGID_9_);}
	.st63{fill:#95C0F4;}
	.st64{fill:#2B478B;}
	.st65{fill:#C67B47;}
	.st66{fill:#FA6964;}
	.st67{fill:#C6D0E9;}
	.st68{fill:#97A43C;}
	.st69{fill:#C76B98;}
	.st70{fill:#FCBAC0;}
	.st71{fill:#C9C9C9;}
	.st72{fill:#FFAA55;}
	.st73{fill:#FFB27D;}
	.st74{fill:#FFB294;}
	.st75{fill:#FFC655;}
	.st76{fill:#FFFFFF;}
	.st77{fill:#63C7BB;}
	.st78{fill:#CAE6F7;}
	.st79{fill:#9BA1A7;}
	.st80{fill:#CBBACE;}
	.st81{fill:#CCBDB7;}
	.st82{fill:#9E633A;}
	.st83{fill:#CE6161;}
	.st84{opacity:0.7;fill:#FFFFFF;}
	.st85{fill:#323657;}
	.st86{fill:#333333;}
	.st87{fill:#33485B;}
	.st88{fill:#343C6B;}
	.st89{fill:#36572B;}
	.st90{fill:#39B54A;}
	.st91{fill:#007CF4;}
	.st92{fill:#050542;}
	.st93{fill:#D44040;}
	.st94{fill:#D4EEFF;}
	.st95{fill:#3A3F47;}
	.st96{fill:#D68080;}
	.st97{fill:url(#SVGID_10_);}
	.st98{fill:url(#SVGID_11_);}
	.st99{fill:url(#SVGID_12_);}
	.st100{fill:url(#SVGID_13_);}
	.st101{fill:url(#SVGID_14_);}
	.st102{fill:url(#SVGID_15_);}
	.st103{fill:url(#SVGID_16_);}
	.st104{fill:url(#SVGID_17_);}
	.st105{fill:url(#SVGID_18_);}
	.st106{fill:url(#SVGID_19_);}
	.st107{fill:url(#SVGID_20_);}
	.st108{fill:url(#SVGID_21_);}
	.st109{fill:url(#SVGID_22_);}
	.st110{fill:url(#SVGID_23_);}
	.st111{fill:url(#SVGID_24_);}
	.st112{fill:url(#SVGID_25_);}
	.st113{fill:url(#SVGID_26_);}
	.st114{fill:url(#SVGID_27_);}
	.st115{fill:url(#SVGID_28_);}
	.st116{fill:url(#SVGID_31_);}
	.st117{fill:url(#SVGID_32_);}
	.st118{fill:url(#SVGID_33_);}
	.st119{fill:url(#SVGID_34_);}
	.st120{fill:url(#SVGID_35_);}
	.st121{fill:url(#SVGID_42_);}
	.st122{fill:#706865;}
	.st123{fill:none;stroke:#1F191A;stroke-width:2.3477;stroke-linecap:round;stroke-linejoin:round;stroke-miterlimit:10;}
	.st124{fill:#715346;}
	.st125{clip-path:url(#SVGID_37_);}
	.st126{clip-path:url(#SVGID_39_);}
	.st127{clip-path:url(#SVGID_41_);}
	.st128{fill:#72C4F4;}
	.st129{fill:#739EBA;}
	.st130{fill:#A33D3D;}
	.st131{fill:#0B151A;}
	.st132{fill:#DA9B5B;}
	.st133{opacity:0.5;fill:#162B35;}
	.st134{fill:#0DA5BF;}
	.st135{opacity:0.53;fill:#202021;}
	.st136{fill:#DFE1E8;}
	.st137{fill:#421D46;}
	.st138{fill:#424773;}
	.st139{fill:#445393;}
	.st140{fill:#45613C;}
]]>
</style>
<g id="surface1">
	<path d="M34.51,29.56v19.65h3.93V29.56c0-2.17,1.76-3.93,3.93-3.93h78.6c2.17,0,3.93,1.76,3.93,3.93h3.93
		c0-4.34-3.52-7.86-7.86-7.86h-78.6C38.03,21.7,34.51,25.22,34.51,29.56z"/>
	<path d="M30.58,139.61h90.39c4.34,0,7.86-3.52,7.86-7.86v-7.86h-3.93v7.86c0,2.17-1.76,3.93-3.93,3.93c-2.17,0-3.93-1.76-3.93-3.93
		v-5.9c0-1.09-0.88-1.96-1.96-1.96H38.44v-39.3h-3.93v39.3h-9.83c-1.09,0-1.97,0.88-1.97,1.96v5.9
		C22.72,136.09,26.24,139.61,30.58,139.61z M26.65,127.82h86.46v3.93c0,1.38,0.36,2.74,1.06,3.93H30.58c-2.17,0-3.93-1.76-3.93-3.93
		V127.82z"/>
	<path d="M24.68,80.66h39.3c1.09,0,1.96-0.88,1.96-1.96V55.11c0-1.09-0.88-1.96-1.96-1.96h-39.3c-1.09,0-1.97,0.88-1.97,1.96v23.58
		C22.72,79.78,23.6,80.66,24.68,80.66z M26.65,57.07h35.37v19.65H26.65V57.07z"/>
	<path d="M35.08,61.58l-3.93,3.93c-0.77,0.77-0.77,2.01,0,2.78l3.93,3.93l2.78-2.78l-2.54-2.54l2.54-2.54L35.08,61.58z"/>
	<path d="M53.58,61.58l-2.78,2.78l2.54,2.54l-2.54,2.54l2.78,2.78l3.93-3.93c0.77-0.77,0.77-2.01,0-2.78L53.58,61.58z"/>
	<path d="M40.5,72.17l3.93-11.79l3.73,1.24l-3.93,11.79L40.5,72.17z"/>
	<path d="M138.66,33.49H71.84c-1.09,0-1.96,0.88-1.96,1.96v39.3c0,1.09,0.88,1.96,1.96,1.96h66.81c1.08,0,1.96-0.88,1.96-1.96v-39.3
		C140.62,34.37,139.74,33.49,138.66,33.49z M136.69,72.79H73.81v-4.78l17.65-10.59l17.2,11.13c0.59,0.38,1.34,0.42,1.97,0.09
		l14.23-7.37l11.84,6.76V72.79z M136.69,63.51l-10.81-6.18c-0.58-0.33-1.29-0.35-1.88-0.04l-14.16,7.34L92.57,53.46
		c-0.63-0.41-1.44-0.42-2.08-0.03l-16.68,10V37.42h62.88V63.51z"/>
	<path d="M116.06,55.11c3.8,0,6.88-3.08,6.88-6.88c0-3.8-3.08-6.88-6.88-6.88c-3.8,0-6.88,3.08-6.88,6.88
		C109.18,52.03,112.26,55.11,116.06,55.11z M116.06,45.28c1.63,0,2.95,1.32,2.95,2.95s-1.32,2.95-2.95,2.95s-2.95-1.32-2.95-2.95
		S114.43,45.28,116.06,45.28z"/>
	<path d="M42.37,86.55v23.58c0,1.09,0.88,1.96,1.96,1.96h49.13c1.09,0,1.96-0.88,1.96-1.96V86.55c0-1.09-0.88-1.96-1.96-1.96H44.33
		C43.25,84.59,42.37,85.46,42.37,86.55z M46.3,88.52h45.2v19.65H46.3V88.52z"/>
	<path d="M50.23,92.45h7.86v3.93h-7.86V92.45z"/>
	<path d="M62.02,92.45H79.7v3.93H62.02V92.45z"/>
	<path d="M83.63,92.45h3.93v3.93h-3.93V92.45z"/>
	<path d="M50.23,100.31h23.58v3.93H50.23V100.31z"/>
	<path d="M77.74,100.31h9.83v3.93h-9.83V100.31z"/>
	<path d="M42.37,29.56h3.93v3.93h-3.93V29.56z"/>
	<path d="M50.23,29.56h3.93v3.93h-3.93V29.56z"/>
	<path d="M58.09,29.56h3.93v3.93h-3.93V29.56z"/>
	<path d="M42.37,37.42h23.58v3.93H42.37V37.42z"/>
	<path d="M138.66,92.45h-37.34c-1.08,0-1.96,0.88-1.96,1.96v23.58c0,1.09,0.88,1.97,1.96,1.97h37.34c1.08,0,1.96-0.88,1.96-1.97
		V94.41C140.62,93.33,139.74,92.45,138.66,92.45z M136.69,116.03h-33.41V96.38h33.41V116.03z"/>
	<path d="M107.21,100.31h3.93v3.93h-3.93V100.31z"/>
	<path d="M107.21,108.17h3.93v3.93h-3.93V108.17z"/>
	<path d="M115.07,100.31h17.69v3.93h-17.69V100.31z"/>
	<path d="M115.07,108.17h17.69v3.93h-17.69V108.17z"/>
	<path d="M124.9,80.66h3.93v7.86h-3.93V80.66z"/>
</g>
</svg>
