<?xml version="1.0" encoding="utf-8"?>
<!-- Generator: Adobe Illustrator 16.0.0, SVG Export Plug-In . SVG Version: 6.00 Build 0)  -->
<!DOCTYPE svg PUBLIC "-//W3C//DTD SVG 1.1//EN" "http://www.w3.org/Graphics/SVG/1.1/DTD/svg11.dtd">
<svg version="1.1" id="Layer_1" xmlns="http://www.w3.org/2000/svg" xmlns:xlink="http://www.w3.org/1999/xlink" x="0px" y="0px"
	 width="1288px" height="980px" viewBox="0 0 1288 980" style="enable-background:new 0 0 1288 980;" xml:space="preserve">
<style type="text/css">
<![CDATA[
	.st0{fill-rule:evenodd;clip-rule:evenodd;fill:#3D3D3D;}
	.st1{fill-rule:evenodd;clip-rule:evenodd;fill:#D98E90;}
	.st2{fill-rule:evenodd;clip-rule:evenodd;fill:#AF1116;}
	.st3{fill-rule:evenodd;clip-rule:evenodd;fill:#B7282C;}
	.st4{fill-rule:evenodd;clip-rule:evenodd;}
	.st5{fill-rule:evenodd;clip-rule:evenodd;fill:#C04246;}
	.st6{fill-rule:evenodd;clip-rule:evenodd;fill:#C1474B;}
	.st7{fill-rule:evenodd;clip-rule:evenodd;fill:#FEFEFE;}
	.st8{fill-rule:evenodd;clip-rule:evenodd;fill:#CB6367;}
	.st9{fill-rule:evenodd;clip-rule:evenodd;fill:#010101;}
]]>
</style>
<path class="st2" d="M1257,670c-2.09,5.14-1.28,10.63-1.91,15.95c-1.04,8.76-1.7,17.56-2.59,26.34c-0.24,2.31-0.44,5.04-3.59,5.12
	c-3.37,0.08-3.48-2.61-4.03-5.18c-9.74-45.94-33.49-81.34-78.07-99.56c-24.02-9.82-48.89-7.84-73.42-0.17
	c-16.98,5.31-33.35,12.32-50.22,17.9c-15.57,5.15-31.57,7.96-48.07,7.73c-10.58-0.15-20.77-2.6-31.05-4.59
	c-4.05-0.78-6.15-3.37-6.19-7.81c-0.07-8.32-0.34-16.65-0.81-24.96c-0.24-4.12,1.3-5.3,5.24-4.76c10.07,1.37,20.17,2.18,30.38,1.75
	c16.37-0.7,30.14-8.04,42.97-17.11c18.34-12.97,36.11-26.76,54.24-40.03c13.54-9.91,28.05-17.69,44.89-20.67
	c35.33-6.27,67.36,1.56,96.58,21.92c4.23,2.95,8.12,6.42,12.5,9.11c6.55,4.03,8.55,9.98,9.17,17.19c1.03,11.94,2.46,23.85,3,35.83
	c0.04,0.8-0.09,1.69,0.98,2c0,1.33,0,2.67,0,4c-0.82,2.33-0.82,4.67,0,7c0,0.67,0,1.33,0,2c-1.11,4.34-0.23,8.76-0.52,13.13
	c0,4.17,0,8.34,0,12.51c0,2.04,0,4.08,0,6.12c0.28,3.07-0.59,6.21,0.52,9.24C1257,663.33,1257,666.67,1257,670z"/>
<path class="st6" d="M1256.07,631.93c0.54-4.29-1.34-8.76,0.93-12.93c0,4.33,0,8.67,0,13
	C1256.66,632.45,1256.34,632.45,1256.07,631.93z"/>
<path class="st3" d="M1256.07,631.93c0.31,0.03,0.62,0.05,0.93,0.07c0,4.33,0,8.67,0,13c-0.3,0.43-0.62,0.47-0.96,0.04
	C1256.05,640.67,1256.06,636.3,1256.07,631.93z"/>
<path class="st8" d="M1257,660c-2.04-2.8-0.58-5.95-0.87-8.92c0.24-0.52,0.53-0.55,0.87-0.08C1257,654,1257,657,1257,660z"/>
<path class="st1" d="M1257,617c-1.41-2.33-1.79-4.67,0-7C1257,612.33,1257,614.67,1257,617z"/>
<path class="st5" d="M1257,651c-0.29,0.02-0.58,0.05-0.87,0.08c-0.03-2.01-0.06-4.03-0.09-6.04c0.32-0.02,0.64-0.04,0.96-0.04
	C1257,647,1257,649,1257,651z"/>
<path class="st2" d="M758.06,357.93c-0.52-0.1-1.35-0.22-2.15-0.43c-9.19-2.33-18.33-4.82-27.57-6.95c-4.49-1.04-4.9-2.79-2.55-6.52
	c8.48-13.43,14.42-27.84,14.69-43.95c0.23-14.28-3.18-28.06-7.06-41.68c-6.15-21.59-12.63-43.08-16.68-65.21
	c-9.46-51.74,8.17-92.48,50.07-123.35c7.25-5.34,15.01-9.86,22.92-14.15c3.1-1.69,6.11-1.94,9.58-1.15
	c49.66,11.26,96.3,30.33,140.99,54.45c0.73,0.39,1.48,0.77,2.17,1.24c1.88,1.28,3.6,2.81,2.38,5.33c-1.1,2.26-3.13,2.62-5.53,2.11
	c-12.96-2.74-26.12-3.42-39.28-2.59c-33.66,2.13-63.93,12.39-87.47,37.92c-14.52,15.76-21.52,34.89-24.56,55.75
	c-2.85,19.53-2.97,39.15-2.68,58.84c0.19,13.13,0.86,26.35-1.34,39.41c-2.89,17.17-9.61,32.8-19.52,47.08
	C763.01,356.17,761.15,357.83,758.06,357.93z"/>
<path class="st2" d="M669.77,39.7c37.73,0.63,70.49,4.07,103.06,9.5c2.14,0.36,5.04,0.29,5.05,3.65c0,3.22-2.15,3.88-4.96,4.31
	c-30.2,4.64-57.95,15.06-80.91,35.87c-29.88,27.07-41.46,60.58-34.6,100.45c2.83,16.47,7.83,32.29,13.33,47.99
	c6.79,19.38,12.68,38.94,12.23,59.8c-0.28,12.96-3.63,25.29-7.64,37.5c-1.01,3.08-2.85,4.44-6.28,4.39
	c-8.83-0.13-17.66,0.11-26.49,0.17c-5.96,0.04-6.56-0.67-5.37-6.75c1.79-9.16,3.49-18.32,3.07-27.73
	c-0.87-19.42-9.01-36.25-18.65-52.56c-8.49-14.36-19.35-27.08-28.35-41.09c-8.95-13.93-16.1-28.64-20.5-44.69
	c-5.86-21.37-5.35-42.48,2.08-63.33c7.91-22.2,19.63-42.14,35.66-59.53c3.75-4.07,8.09-6.28,13.53-6.44
	C640.83,40.69,657.61,39.1,669.77,39.7z"/>
<path class="st2" d="M428.33,90.83c1.98-0.17,3.2,0.22,3.75,1.69c0.64,1.7,0.39,3.35-0.88,4.63c-1.87,1.89-3.91,3.61-5.84,5.45
	c-29.52,28.15-45.77,62.44-45.2,103.39c0.41,29.66,13.76,54.08,35.65,73.84c17.71,15.98,37.29,29.62,56.09,44.22
	c19.02,14.77,30.13,34.25,35.85,57.22c1.01,4.06,0.33,7.26-3.63,9.82c-6.99,4.51-13.63,9.55-20.43,14.36
	c-4.74,3.35-5.15,3.21-7.54-1.95c-4.42-9.53-9.57-18.6-16-26.98c-9.79-12.76-23.44-19.9-37.54-26.49
	c-18.25-8.54-37.57-14.32-56.12-22.07c-25.46-10.65-46.27-26.93-60.59-50.73c-16.71-27.79-19.51-57.86-13.47-89.17
	c0.54-2.78,1.13-5.54,1.67-8.31c0.95-4.94,3.37-8.87,7.33-12.07c34.88-28.18,73.38-50.55,113.33-70.59
	c3.57-1.79,7.19-3.45,10.81-5.14C426.63,91.46,427.73,91.08,428.33,90.83z"/>
<path class="st2" d="M1085.45,235.04c14.54-2.2,24.59,3.51,33.67,15.17c24.51,31.48,45.77,65,65.81,99.38
	c3.77,6.46,7.4,13.01,10.96,19.58c1.34,2.47,4.11,5.32,0.35,7.78c-3.31,2.17-5.04-0.87-6.89-2.98
	c-21.24-24.28-48.71-38.33-79.11-46.91c-21.32-6.02-40.94,0.95-60.05,10.25c-25.11,12.22-43.38,31.55-58.33,54.54
	c-8.89,13.67-17.71,27.37-28.92,39.38c-14.72,15.76-32.28,27.07-52.45,34.5c-4.15,1.53-7.22,0.79-9.97-2.92
	c-4.86-6.55-10.03-12.87-15.19-19.19c-2.53-3.09-2.76-5.32,1.23-7.43c4.11-2.17,7.84-5.06,11.93-7.25
	c20.65-11.07,33.85-28.35,42.65-49.67c7.24-17.54,12.36-35.8,18.85-53.58c7.47-20.49,17.29-39.48,32.72-55.39
	c19.65-20.25,44.15-29.6,71.36-33.28C1071.16,236.07,1078.33,235.68,1085.45,235.04z"/>
<path class="st2" d="M962.88,124.07c5.55,0.18,9.61,2.86,13.65,5.49c22.65,14.7,44.21,30.9,65.27,47.77
	c16.65,13.33,33.02,27,47.36,42.89c0.45,0.5,0.9,0.99,1.34,1.48c1.5,1.68,2.95,3.54,1.32,5.74c-1.71,2.29-3.95,1.79-6.24,0.58
	c-13.76-7.26-28.25-12.58-43.52-15.51c-25.51-4.9-50.95-6-75.79,3.47c-20.3,7.73-35.1,21.03-44.57,41.13
	c-10.64,22.58-18.25,45.97-23.74,70.2c-7.09,31.27-24.97,55.41-49.83,74.89c-2.67,2.09-5.14,2.46-8.1,0.24
	c-7.19-5.38-14.58-10.51-21.87-15.77c-4.22-3.04-4.29-4.21-0.61-7.64c0.73-0.68,1.44-1.4,2.25-1.98
	c20.48-14.77,27.77-36.23,30.14-60.02c2.48-24.89,1.8-49.93,2.78-74.89c2.02-50.98,27.43-85.46,73.19-106.1
	c10.49-4.73,21.44-8.1,32.54-11.04C960.04,124.56,961.69,124.31,962.88,124.07z"/>
<path class="st2" d="M424.33,155.39c0.92-19.57,7.08-43.42,17.32-66.27c1.93-4.31,5.6-6.34,9.73-8
	c30.65-12.27,62.36-20.96,94.53-28.12c17.06-3.79,34.21-7.07,51.55-9.3c2.21-0.29,4.98-1.44,5.99,1.69c1.12,3.48-2.01,4.03-4.2,4.99
	c-28.49,12.43-52.38,30.22-67.89,57.89c-10.29,18.35-16.68,37.79-15.39,59.05c1.11,18.34,6.16,35.6,15.69,51.51
	c11.56,19.29,24.11,37.94,37.13,56.23c15.43,21.67,21.14,45.56,19.23,71.71c-0.26,3.54-1.45,5.78-5.24,6.78
	c-7.55,1.98-14.98,4.43-22.46,6.68c-5.84,1.75-6.82,1.28-7.1-4.8c-1.18-25.02-11.53-45.48-30.31-61.84
	c-6.41-5.58-12.73-11.26-19.21-16.75c-15.99-13.57-33.57-25.26-48.09-40.57C435.58,215.14,423.75,190.57,424.33,155.39z"/>
<path class="st2" d="M1250.71,540.37c-0.11,2.02-0.62,3.84-2.76,4.3c-2.53,0.54-4.02-0.88-4.92-3.17
	c-3.34-8.53-7.15-16.88-12.33-24.44c-25.46-37.18-60.3-56.42-105.83-53.94c-24.47,1.33-45.17,12.51-64.41,26.93
	c-13.18,9.88-25.82,20.49-39.61,29.56c-20.71,13.64-43.31,21.65-68.11,23.31c-7.64,0.51-9.08-0.47-11.74-7.7
	c-2.64-7.17-5.4-14.29-8.32-21.35c-1.52-3.67-0.99-5.37,3.32-6.06c8.7-1.39,17.25-3.49,25.75-5.86
	c17.94-4.98,30.44-17.31,42.03-30.78c13.9-16.17,25.46-34.16,38.71-50.85c17.88-22.51,39.75-39.25,67.86-46.67
	c19.93-5.26,39.99-3.3,59.89,0.66c10.28,2.05,20.3,5.09,29.96,9.25c3.52,1.52,5.99,3.75,7.69,7.31
	c15.08,31.51,24.51,64.92,33.01,98.61c4.03,15.96,7.48,32.07,9.38,48.46C1250.38,538.8,1250.57,539.61,1250.71,540.37z"/>
<path class="st2" d="M177.39,302.83c0.07-2.73,1.75-6.14,3.95-9.32c13.67-19.76,28.98-38.22,44.99-56.1
	c16.13-18.02,33.08-35.23,51.84-50.56c1.95-1.59,3.97-4.51,6.83-2.17c3.09,2.53,1.19,5.55-0.46,8.03
	c-12.57,18.87-18.98,39.87-21.04,62.23c-3.01,32.66,3.32,62.77,26.21,87.63c12.43,13.51,28.59,21.5,45.24,28.56
	c16.68,7.07,34.03,12.38,50.58,19.82c23.74,10.66,41.75,27.54,55.58,49.3c1.57,2.47,1.63,4.29-0.33,6.61
	c-5.6,6.61-11.12,13.29-16.36,20.18c-2.67,3.5-4.49,2.78-6.96-0.06c-8.56-9.8-17.46-19.22-28.82-25.98
	c-11.45-6.81-24.24-8.97-37.06-10.97c-21.59-3.38-43.45-3.88-65.17-5.96c-36.05-3.45-65.52-18.43-85.53-49.2
	C186.93,353.46,179.28,329.65,177.39,302.83z"/>
<path class="st2" d="M173.97,318.77c-0.43,1.55-1.02,3.45-1.49,5.38c-9.85,40.13-5.77,78.3,18.58,112.44
	c17.81,24.96,43.37,37.67,73.82,40.41c21.23,1.91,42.55,2.53,63.76,4.93c22.08,2.49,41.26,11.29,58.34,25.03
	c13.56,10.91,12.08,6.7,6.03,22.4c-1.55,4.03-3.41,7.94-5.17,11.89c-3.2,7.19-3.48,7.31-9.93,3.06
	c-7.24-4.76-14.66-9.13-22.82-12.22c-15.86-6.02-32.14-5.39-48.29-2.45c-23.06,4.2-45.95,9.34-68.95,13.92
	c-33.61,6.7-64.47,1.13-90.43-22.33c-18.02-16.28-32.91-35.28-44.42-56.8c-1.2-2.24-1-4.34-0.35-6.71
	c8.69-31.76,22.3-61.52,36.8-90.92c8.39-17.01,17.53-33.63,27.43-49.81c1.05-1.71,2.07-3.74,4.55-3.03
	C173.49,314.53,173.94,316.41,173.97,318.77z"/>
<path class="st2" d="M76.83,615.03c2-45.83,6.55-91.3,19.12-135.64c0.18-0.64,0.33-1.29,0.51-1.93c0.61-2.19,1.51-4.36,4.22-4.04
	c2.56,0.31,3.28,2.32,3.41,4.76c0.51,9.66,1.98,19.19,3.9,28.66c4.47,22.1,13.48,42.11,27.96,59.42
	c24.45,29.22,56.3,39.08,93.39,35.28c16.36-1.68,31.73-7.17,47.5-11.16c30.96-7.83,61.53-8.21,91.32,5.38
	c4.25,1.94,6.19,4.24,5.73,9.06c-0.81,8.45-1.04,16.96-1.62,25.43c-0.36,5.29-0.88,5.55-6.16,3.92c-2.86-0.88-5.75-1.68-8.56-2.7
	c-19.99-7.24-39.51-5.49-58.83,2.72c-21.33,9.06-41.43,20.45-61.32,32.24c-15.64,9.27-32.1,15.79-50.37,17.72
	c-23.21,2.45-44.55-2.64-64.67-14.14c-15.45-8.83-29.33-19.52-41.38-32.67c-3.63-3.96-5.63-7.93-4.72-13.35
	C76.76,621.06,76.66,618.03,76.83,615.03z"/>
<path class="st4" d="M1110.35,845.76c0,3.26,0.23,5.78-0.06,8.24c-0.34,2.95,1.74,6.74-1.88,8.66c-4.37,2.32-9.13,3.2-13.92,0.98
	c-4.95-2.29-8.46-6.33-12.14-10.65c-1.91,7.17-5.1,12.98-12.22,16.18c7.48,8.07,14.57,15.96,21.96,23.56
	c2.34,2.41,1.99,3.76-0.57,5.21c-2.03,1.15-3.4,4.87-6.48,0.64c-8.44-11.57-17.31-22.81-25.93-34.25c-3.01-4-5.48-8.37-6.7-13.28
	c-0.82-3.33-1.1-6.81,2.22-9.04c3.25-2.19,5.77,0.22,7.95,2.14c2.37,2.08,3.83,1.85,4.45-1.13c1.75-8.41,0.51-16.93,0.77-25.4
	c0.05-1.73-1.41-1.53-2.55-1.53c-9.33-0.01-18.66,0.08-27.99-0.05c-3.88-0.05-2.64,2.68-2.64,4.5c-0.06,24.5-0.03,49-0.07,73.5
	c0,1.58,0.57,3.29-0.73,5.13c-4.46-3.54-8.83-7.07-13.26-10.5c-1.43-1.1-1.33-2.53-1.32-4.03c0.01-5.5-0.13-11,0.06-16.5
	c0.09-2.64-0.75-3.4-3.35-3.33c-6.33,0.18-12.67,0.18-19,0c-2.75-0.08-4.13,0.63-3.65,3.57c0.05,0.33,0.03,0.67,0,1
	c-0.32,3.35,1.19,7.81-2.81,9.34c-3.65,1.4-6.39-2.05-8.98-4.29c-5.22-4.51-9.52-9.83-12.28-16.18c-2.57-5.92-0.8-8.84,5.51-9.21
	c2.24-0.13,2.78-0.88,2.77-2.95c-0.08-9-0.11-18,0.01-27c0.03-2.46-0.83-3.11-3.18-3.07c-6.66,0.14-13.34,0.25-19.99-0.04
	c-3.47-0.15-4.44,0.77-4.41,4.33c0.17,24.5,0.09,49,0.09,73.5c0,1.63,0,3.27,0,5.97c-5.46-4.18-10.25-7.84-15.04-11.51
	c-1.49-1.14-0.86-2.76-0.87-4.17c-0.05-11.5-0.13-23,0.04-34.5c0.04-3.12-0.55-4.62-4.04-4.24c-2.8,0.3-5.66,0.05-8.49,0.06
	c-10.22,0.04-16.13,5.61-16.48,15.84c-0.36,10.5,4.67,18.82,11.16,26.48c2.19,2.58,1.39,6.01-1.64,7.61
	c-1.42,0.75-1.76-0.32-2.33-0.98c-10.44-12.25-18.34-25.73-20.03-42.12c-1.36-13.17,6.74-22.31,19.88-22.49c6-0.08,12-0.18,18,0.05
	c3,0.11,3.99-0.62,3.99-3.81c0.01-9.93,0.17-9.93-9.73-9.93c-16,0-32,0.15-47.99-0.11c-3.91-0.06-4.57,1.13-4.55,4.72
	c0.16,25.98,0.08,51.97,0.08,79.16c-5.55-4.29-10.48-8.01-15.3-11.88c-1.34-1.07-0.6-2.83-0.61-4.26c-0.04-21-0.11-42,0.05-63
	c0.03-3.54-0.54-5.01-4.52-4.74c-5.81,0.39-11.67,0.27-17.49-0.01c-3.3-0.16-4.13,0.86-4.12,4.12c0.14,24.67,0.08,49.33,0.08,74
	c0,1.59,0,3.18,0,5.65c-5.35-4.05-9.91-7.56-14.54-10.97c-1.45-1.06-1.44-2.44-1.43-3.96c0.03-4.12,0.01-8.23,0.01-13.16
	c-4.39,3.85-8.38,6.96-13.15,8.88c-8.73,3.5-16.92,2.66-24.58-2.85c-3.13-2.25-5.92-4.85-8.32-7.88
	c-10.7-13.47-8.33-24.44,7.31-32.35c-4.86-3.93-9.77-7.64-13.17-12.86c-7.17-11-2.71-25.2,8.92-28.66c4.13-1.23,7.08-1.03,8.09,3.98
	c0.38,1.92,1.43,3.7,2.22,5.67c-2.38,0.64-4.6,1.27-6.54,2.59c-6.29,4.28-7.09,12.01-1.93,17.57c5.07,5.47,11.53,7.87,18.69,8.22
	c4.47,0.22,6.45,1.6,6.47,6.41c0.03,6.75,0.39,6.91-6.63,7.84c-6.69,0.89-11.6,4.79-16.33,9.01c-2.13,1.9-2.96,4.57-1.58,7.27
	c1.7,3.33,4.53,5.33,8.39,5.31c6.33-0.02,12.1-2.09,17.38-5.44c2.52-1.6,4.85-3.51,7.17-5.4c5.43-4.41,8.55-9.57,7.75-17.17
	c-0.78-7.42-0.27-14.98-0.12-22.48c0.05-2.55-0.61-3.78-3.29-3.28c-2.57,0.47-3.85-0.85-4.94-3.02c-2.06-4.11-4.4-8.07-7.03-12.84
	c13.3,0,25.73-0.01,38.15,0c6.33,0,12.66,0.01,19,0.09c2,0.02,3.05-0.2,2.48-2.76c-1.47-6.58-3.53-12.84-7.94-18.08
	c-4.44-5.27-10.55-7.03-16.06-4.74c-5.38,2.24-8.31,7.4-8.01,14.22c0.08,1.83,0.61,3.67,0.46,5.46c-0.1,1.21,2.26,3.07-0.44,3.59
	c-1.95,0.38-4.21,0.92-5.63-1.73c-3.5-6.56-5.29-22.1,1.6-30.46c5.74-6.96,13.76-8.87,21.88-4.81c5.87,2.94,9.96,7.72,13.32,13.16
	c4.06,6.57,6.91,13.71,8.13,21.3c0.65,4.03,2.21,4.93,6.09,4.92c48.65-0.14,97.3-0.09,145.96-0.09c51.82,0,103.64,0.04,155.46-0.09
	c3.65-0.01,5.83,0.92,7.34,4.29c1.69,3.75,3.88,7.27,6.25,11.63c-4.69,0-8.75,0.12-12.81-0.05c-2.38-0.1-3.13,0.66-3.12,3.08
	c0.08,25,0.08,50-0.01,75c-0.01,2.21,0.93,3.19,2.6,4.26c4.26,2.74,7.68,6.36,10.38,10.65c6.21,9.87,4.32,20.31-5.18,27.21
	c-9.76,7.1-20.39,7.42-31.29,3.1c-14.7-5.82-24.83-16.9-33.62-29.54c-2.08-3,0.59-3.89,1.92-5.12c2-1.84,2.39,0.81,3.05,1.7
	c8.05,10.88,17.74,19.41,31.43,22.25c11.59,2.4,22.65-3.83,24.66-13.92c0.55-2.74,1.3-5.76-1.6-7.78c-2.96-2.06-6.01-1.36-8.96,0.19
	c-0.73,0.38-1.31,1.04-2.05,1.41c-2.12,1.07-2.86,5.57-4.97,4.3c-3.44-2.07-5.95-5.73-8.71-8.84c-0.94-1.05,0.44-1.7,1.04-2.29
	c3.88-3.86,8.41-6.48,14.02-6.88c-0.08-0.34-0.06-0.84-0.24-0.93c-7.13-3.66-8.07-9.78-7.65-17.08c0.54-9.3,0.05-18.66,0.18-27.99
	c0.04-2.56-0.63-3.59-3.33-3.43c-3.32,0.21-6.68,0.27-9.99,0.01c-11.89-0.94-17.33,10.12-16.27,18.6
	c1.16,9.27,4.96,17.32,11.31,23.93c3.38,3.52,0.3,4.73-1.27,6.59c-2.66,3.13-3.34-0.63-4.2-1.64c-9.83-11.63-17.08-24.51-18.81-40
	c-1.48-13.19,6.69-22.82,19.93-23.08c6.5-0.13,13-0.12,19.5,0.01c2.39,0.05,3.04-0.72,3.15-3.11c0.47-10.62,0.56-10.61-10.04-10.61
	c-19.66,0-39.32,0.08-58.98-0.08c-3.27-0.03-4.22,0.83-4.12,4.11c0.25,7.49,0.23,15,0,22.49c-0.09,3.01,1.02,4.59,3.66,5.66
	C1094.64,851.54,1102.38,851.1,1110.35,845.76z"/>
<path class="st4" d="M221.04,800.18c41.98,0,83.96,0,126.89,0c-5.32-5.22-8.88-10.64-10.28-17.46c-1.91-9.27,1.09-16.35,8.43-21.85
	c7.6-5.7,16.44-8.23,25.7-8.38c38.73-0.63,74.07,9.09,103.88,35.06c1.92,1.67,3.81,3.07,0.27,5c-1.49,0.81-2.15-0.41-2.97-1.04
	c-26.92-20.6-57.81-28.5-91.15-28.44c-9.83,0.02-18.74,2.8-25.72,10.15c-5.03,5.29-6.34,11.52-4.19,18.48
	c2.19,7.09,4.42,8.46,11.75,8.45c48.49-0.03,96.97,0.06,145.46,0.06c2.04,0,3.39,0.46,4.38,2.41c2.18,4.27,4.59,8.42,7.37,13.46
	c-4.02,0-7.43,0.28-10.77-0.07c-4.03-0.42-5.3,0.69-5.25,5.02c0.24,24.33,0.12,48.66,0.12,72.99c0,1.6,0,3.2,0,5.85
	c-5.29-4.24-9.76-7.83-14.24-11.41c-1.43-1.14-1.01-2.72-1.02-4.16c-0.05-3.95-0.02-7.89-0.02-12.5c-3.8,2.53-6.96,4.81-10.29,6.82
	c-7.63,4.59-15.2,4.29-22.46-0.83c-8.98-6.34-15.62-14.45-18.15-25.39c-3.94-17.07,11.75-31.48,28.6-26.61
	c9.1,2.63,15.46,8.73,22.29,16.53c0-8.85,0.02-16.54-0.01-24.23c-0.01-2.79-2.19-1.97-3.66-1.98c-17.17-0.03-34.33,0-51.5,0
	c-7.5,0-15,0.14-22.49-0.1c-3.19-0.11-3.93,0.97-3.84,3.97c0.2,7.49,0.27,15.01-0.03,22.49c-0.13,3.34,1.42,4.79,4.04,6
	c6.87,3.18,15.35,2.29,23.74-2.92c0,4.89-0.01,9.44,0,14c0.01,2.88-2.36,3.5-4.28,4.18c-5.93,2.09-11.53,1.35-16.31-2.95
	c-2.57-2.31-4.9-4.9-7.68-7.71c-1.17,3.75-2.25,6.97-4.26,9.76c-1.99,2.75-4.64,4.67-8.07,6.32c8.34,8.98,16.35,17.59,24.36,26.21
	c-6.72,6.4-6.74,6.41-12.19-0.53c-7-8.9-14.04-17.78-20.94-26.76c-3.86-5.03-7.22-10.37-8.88-16.61c-0.95-3.57-1.32-7.11,2.16-9.46
	c3.22-2.18,5.79,0.23,7.95,2.18c2.67,2.41,3.58,1.02,4.36-1.44c1.77-5.54,0.74-11.25,0.84-16.87c0.18-9.78,0.05-9.78-9.73-9.78
	c-6.17,0-12.35,0.27-18.49-0.09c-4.06-0.24-5.32,0.77-5.28,5.08c0.23,24.16,0.11,48.33,0.11,72.49c0,1.64,0,3.28,0,6.29
	c-5.44-4.42-10.14-8.13-14.7-12.01c-1.25-1.07-0.56-2.85-0.56-4.3c-0.04-20.83-0.16-41.67,0.09-62.5c0.05-4.31-1.22-5.3-5.27-5.06
	c-5.98,0.36-12,0.32-17.99,0.01c-3.55-0.18-4.39,0.94-4.36,4.4c0.15,25,0.08,50,0.08,75c0,1.1,0,2.2,0,4.42
	c-5.26-4.18-9.74-7.74-14.21-11.31c-1.58-1.26-1.06-3.05-1.06-4.66c-0.04-10.67-0.13-21.33,0.05-32c0.05-3.17-0.67-4.44-4.12-4.26
	c-5.62,0.3-11.26,0.08-17.47,0.08c2.94,5.23,5.98,9.79,7.38,15.11c1.09,4.12,1.38,8.19-0.21,12.25c-3.28,8.35-10.54,11.62-19.51,8.6
	c-7.2-2.42-12.62-7.3-17.27-13.09c-6.64-8.26-11.23-17.63-14.67-27.6c-1.91-5.53-1.94-5.52,3.94-7.95
	c2.74,6.94,5.45,13.91,10.17,19.83c3.48,4.37,7.36,8.16,13.02,9.56c5.82,1.43,9.98-1.55,10.13-7.55c0.21-8.09-3.21-14.78-8.4-20.76
	c-1.03-1.18-3.47-1.69-2.16-4.33c1.21-2.43,3.2-1.96,5.12-1.96c9.83-0.02,19.67-0.14,29.5,0.06c3.33,0.07,4.64-0.64,4.59-4.32
	c-0.12-9.43,0.07-9.43-9.34-9.43c-24,0-48,0.1-71.99-0.1c-3.81-0.03-4.64,0.98-4.62,4.68c0.17,25.97,0.09,51.93,0.09,79.26
	c-5.44-4.42-10.17-8.14-14.74-12.04c-1.23-1.05-0.59-2.86-0.59-4.32c-0.04-11.33-0.14-22.67,0.06-34c0.06-3.32-0.91-4.44-4.22-4.19
	c-3.48,0.27-7,0-10.49,0.07c-8.29,0.17-14.4,6.04-14.91,14.36c-0.61,10.06,3.11,18.81,9.64,25.99c4.05,4.45,3.42,7.06-1.33,10.16
	c-11.3-13.04-20.57-27.18-21.36-45.29c-0.55-12.61,7.4-20.74,20.05-20.89c6.17-0.07,12.34-0.13,18.5,0.04
	c2.85,0.08,4.1-0.47,4.14-3.75c0.11-9.97,0.27-9.97-9.76-9.97c-12.5,0-25-0.08-37.5,0.07c-2.69,0.03-4.23-0.71-5.39-3.2
	c-1.74-3.75-3.9-7.32-5.88-10.96c0.74-2.77,3.01-1.39,4.47-1.4c17.95-0.11,35.92,0.38,53.84-0.3
	C207.26,800.02,214.15,801.38,221.04,800.18z"/>
<path class="st4" d="M699.73,520.09c-5.89,15.66-11.79,31.33-17.68,46.99c-8.3,22.07-16.66,44.12-24.79,66.25
	c-1.11,3.02-2.44,4.02-5.63,4c-12.17-0.09-12.18,0.03-16.46-11.38c-13.16-35.11-26.31-70.22-39.75-106.1
	c-1.25,2.22-0.85,3.98-0.85,5.6c-0.03,35.5-0.11,70.99,0.1,106.49c0.03,4.48-1.13,5.97-5.5,5.36c-4.07-0.57-9.54,1.79-11.92-0.97
	c-2.01-2.33-0.68-7.61-0.68-11.58c-0.02-41.66,0.05-83.32-0.11-124.98c-0.02-4.14,0.96-5.49,5.17-5.19c5.47,0.39,11,0.32,16.49,0.01
	c3.39-0.19,4.85,0.93,6.04,4.16c12.51,33.79,25.22,67.51,37.88,101.25c1.69,4.5,3.41,9,5.45,14.41
	c3.96-10.41,7.65-20.02,11.28-29.66c10.76-28.59,21.55-57.18,32.18-85.83c1.14-3.07,2.39-4.56,5.95-4.33
	c5.64,0.36,11.34,0.37,16.99,0c4.04-0.26,4.93,1.12,4.92,4.99c-0.14,43.16-0.09,86.32-0.09,129.48c0,8.2,0,8.2-8,8.2
	c-10,0-10,0-10-10.08c0-35.63,0-71.25,0-106.88C700.39,520.22,700.06,520.15,699.73,520.09z"/>
<path class="st4" d="M611.77,899.14c-4.43-3.52-8.8-7.04-13.22-10.47c-1.62-1.26-1.26-2.94-1.27-4.55
	c-0.02-7.83-0.18-15.67,0.07-23.49c0.1-3.17-0.87-4-3.91-3.81c-4.15,0.26-8.35,0.31-12.49,0c-4.78-0.36-6.24,1.9-6.02,6.22
	c0.1,1.97,0.22,3.97-0.47,5.93c-1.29,3.67-3.5,4.55-6.92,2.66c-6.16-3.41-12.85-16.65-11.88-23.62c0.6-4.29,3.52-6.82,8.36-6.86
	c9.83-0.09,19.67-0.17,29.49,0.05c3.17,0.07,3.94-0.89,3.81-3.91c-0.24-5.82-0.26-11.67,0.01-17.49c0.15-3.22-1-3.83-3.97-3.8
	c-13.16,0.16-26.33-0.03-39.49,0.14c-3.2,0.04-4.17-0.66-3.98-4.06c0.65-11.83,0.5-11.84,12.23-11.84
	c59.48,0,118.96,0.05,178.44-0.11c4.27-0.01,6.75,1.09,8.41,5.03c1.47,3.49,3.58,6.71,5.88,10.91c-3.8,0-7.02,0.24-10.19-0.06
	c-3.79-0.37-5.03,0.71-4.99,4.79c0.21,24.66,0.11,49.33,0.11,73.99c0,1.28,0,2.57,0,5.11c-5.57-4.3-10.36-7.97-15.1-11.7
	c-1.43-1.12-0.73-2.79-0.77-4.22c-0.09-3.82-0.03-7.63-0.03-12.25c-2.6,1.95-4.71,3.65-6.94,5.17c-10.23,7-18.79,6.68-28.13-1.49
	c-8.68-7.59-14.89-16.75-14.78-28.81c0.14-15.28,14.07-25.09,28.74-20.73c8.76,2.6,14.89,8.48,21.11,16.48
	c0-8.81,0.01-16.5-0.01-24.19c-0.01-3.19-2.51-2.04-4.03-2.04c-16.16-0.07-32.33-0.04-48.49-0.04c-3.83,0-7.69,0.29-11.49-0.08
	c-4.29-0.43-5.6,0.78-5.55,5.34c0.26,23.99,0.12,47.99,0.12,71.99c0,1.78,0,3.56,0,6.4c-5.26-4.19-9.74-7.76-14.23-11.34
	c-1.6-1.28-0.98-3.07-0.98-4.65c-0.04-20.83-0.13-41.66,0.07-62.49c0.04-3.96-0.61-5.63-5.04-5.28c-5.63,0.45-11.34,0.41-16.98,0.01
	c-4.17-0.3-4.83,1.32-4.8,5.03c0.15,24.5,0.09,48.99,0.05,73.49C612.53,895.91,613.07,897.46,611.77,899.14z"/>
<path class="st4" d="M835.92,561.52c0.41,0.3,0.64,0.6,0.94,0.67c18.18,4.41,26.63,19.6,25.57,36.17
	c-1.25,19.51-13.47,33.68-31.96,37.79c-3.96,0.88-7.92,1.08-11.91,1.09c-21.33,0.05-42.66-0.05-63.99,0.1
	c-3.38,0.02-4.5-0.72-4.49-4.33c0.13-44.66,0.1-89.32,0.04-133.98c0-2.88,0.19-4.49,3.88-4.43c21.66,0.3,43.32,0.16,64.98,0.51
	c12.23,0.2,23.24,3.42,31.07,14c12.44,16.82,7.05,41.29-11.46,50.99C837.71,560.54,836.85,561.02,835.92,561.52z"/>
<path class="st4" d="M473.35,566.07c0-21.97,0.16-43.93-0.13-65.9c-0.06-4.8,1.46-6.02,5.85-5.58c3.29,0.33,6.66,0.23,9.97,0.02
	c2.64-0.17,3.41,0.73,3.37,3.36c-0.15,8.98-0.06,17.97-0.06,26.96c0,35.78-0.08,71.56,0.11,107.33c0.02,4.26-1.14,5.5-5.22,5.04
	c-4.43-0.5-10.26,1.79-13.01-0.86c-2.78-2.68-0.82-8.52-0.84-12.97C473.3,604.35,473.35,585.21,473.35,566.07z"/>
<path class="st4" d="M525.11,565.47c0-22.15,0.08-44.29-0.08-66.43c-0.02-3.43,0.78-4.74,4.36-4.44c3.8,0.32,7.66,0.25,11.48,0.01
	c2.75-0.17,3.25,0.93,3.25,3.41c-0.06,45.29-0.08,90.58,0.03,135.87c0.01,3.08-1.13,3.55-3.76,3.41c-3.65-0.2-7.34-0.29-10.98,0.02
	c-3.56,0.31-4.4-0.96-4.37-4.41C525.18,610.43,525.11,587.95,525.11,565.47z"/>
<path class="st9" d="M204.99,800c-5.27-8.41-10.33-16.96-15.88-25.18c-4.32-6.4-10.04-7.94-17.33-4.99
	c-2.5,1.01-3.05,0.04-3.78-1.82c-1.4-3.54-2.75-7.11-4.45-10.51c-1.47-2.95-1.15-4.27,2.39-4.89c4.77-0.84,8.88,0.59,12.81,2.82
	c5.13,2.91,9.2,7.09,12.61,11.85c7.23,10.12,13.8,20.67,19.75,31.59C209.6,802.12,207.11,800.05,204.99,800z"/>
<path class="st0" d="M204.99,800c2.03-0.41,4.4,1,6.11-1.13c3.04,2.47,6.67,0.54,9.93,1.32c-1.89,1.57-4.14,0.85-6.23,0.86
	c-22.71,0.05-45.42,0.02-68.13,0.06c-1.57,0-3.35-0.62-4.67,0.88c-1.43-3.68,1.81-1.81,2.56-1.82c12.32-0.14,24.64-0.09,36.95-0.1
	C189.34,800.06,197.17,800.02,204.99,800z"/>
<path class="st7" d="M1019.21,833.79c-0.41,4.34,2.25,11.35-1.02,14.32c-2.85,2.6-9.76,0.81-14.88,0.83
	c-10.04,0.05-10.04,0.01-10.04-10.04c0-6.48,0.1-12.96-0.05-19.44c-0.06-2.54,0.6-3.53,3.32-3.45c6.47,0.18,12.96,0.19,19.44,0
	c2.72-0.08,3.38,0.9,3.28,3.42C1019.09,823.91,1019.21,828.4,1019.21,833.79z"/>
<path class="st7" d="M464.7,868.99c-8.72,0.03-15.07-4.39-16.65-10.08c-1.61-5.8,0.85-11.42,6.68-15.25
	c10.44-6.86,26.23-3.9,33.6,6.26c0.65,0.89,1.11,1.58,0.25,2.57C481.54,860.57,474.27,868.27,464.7,868.99z"/>
<path class="st7" d="M703.2,839.8c8.12,0.11,13.96,4.61,19.31,10.06c0.7,0.71,1.38,1.43,0.48,2.51
	c-6.67,7.97-13.45,15.85-24.88,16.54c-6.72,0.41-12.87-3.75-14.79-9.6c-1.9-5.8,0.62-11.79,6.64-15.75
	C693.63,841.15,698.34,839.82,703.2,839.8z"/>
<path class="st7" d="M796.64,621.25c-7.99,0-15.98-0.12-23.96,0.06c-2.91,0.07-3.61-0.93-3.58-3.7c0.12-14.14,0.06-28.29,0.05-42.43
	c0-1.7-0.25-3.33,2.38-3.25c17.11,0.54,34.28-1.21,51.34,1.04c13.58,1.79,21.12,10.64,20.71,23.58
	c-0.46,14.36-9.11,23.79-22.98,24.46c-7.97,0.39-15.97,0.07-23.95,0.07C796.64,621.14,796.64,621.19,796.64,621.25z"/>
<path class="st7" d="M794.5,511.03c7.32,0,14.65-0.3,21.95,0.07c13.59,0.69,20.49,7.7,21.12,20.88c0.61,12.87-6.11,20.92-19.06,23.1
	c-9.1,1.54-18.26,0.73-27.39,0.9c-6.15,0.12-12.31-0.05-18.47,0.06c-2.34,0.04-3.59-0.23-3.55-3.14
	c0.16-12.98,0.14-25.96,0.01-38.93c-0.03-2.7,0.91-3.39,3.44-3.34c7.32,0.13,14.64,0.05,21.96,0.05
	C794.5,510.79,794.5,510.91,794.5,511.03z"/>
</svg>
