<?xml version="1.0" encoding="utf-8"?>
<!-- Generator: Adobe Illustrator 16.0.0, SVG Export Plug-In . SVG Version: 6.00 Build 0)  -->
<!DOCTYPE svg PUBLIC "-//W3C//DTD SVG 1.1//EN" "http://www.w3.org/Graphics/SVG/1.1/DTD/svg11.dtd">
<svg version="1.1" id="Layer_1" xmlns="http://www.w3.org/2000/svg" xmlns:xlink="http://www.w3.org/1999/xlink" x="0px" y="0px"
	 width="4827.48px" height="1122px" viewBox="0 0 4827.48 1122" style="enable-background:new 0 0 4827.48 1122;"
	 xml:space="preserve">
<style type="text/css">
<![CDATA[
	.st0{fill-rule:evenodd;clip-rule:evenodd;fill:#FF6500;}
	.st1{fill-rule:evenodd;clip-rule:evenodd;fill:#FFFFFF;}
]]>
</style>
<path class="st0" d="M627.04,74.32c152.31,0,304.62-0.01,456.93,0.02c13.8,0,12.3-1.56,12.3,12.19c0.02,304.95,0.02,609.91,0,914.86
	c0,13.79,1.55,12.26-12.23,12.26c-305.29,0.02-610.57,0.02-915.86,0.02c-0.67,0-1.33,0-2,0c-10.16,0.01-9.81,0.82-9.81-9.71
	c0-306.62,0-613.24,0-919.86c0-1.67,0.08-3.33,0.01-5c-0.13-3.31,1.31-4.92,4.72-4.78c2.66,0.11,5.33,0,8,0
	C321.75,74.32,474.39,74.32,627.04,74.32z"/>
<path class="st0" d="M2155.52,435.73c4.32-0.96,6.11-3.93,8.37-6.16c19.38-19.08,42.37-32.25,68.07-40.48
	c34.76-11.13,71.53-0.42,92.89,26.85c5.7,7.27,9.96,15.67,14.97,23.69c3.9-0.18,5.45-3.57,7.75-5.71
	c16.71-15.46,34.43-29.43,55.4-38.82c21.28-9.53,43.44-12.95,66.32-8.25c35.04,7.19,55.02,30.34,64.87,63.49
	c2.97,9.99,3.43,20.35,3.44,30.68c0.07,81.65,0.05,163.31,0.06,244.96c0,1.67-0.06,3.33-0.04,5c0.03,3.28-1.48,4.78-4.85,4.77
	c-15.66-0.07-31.33-0.07-46.99-0.01c-3.56,0.01-4.63-1.88-4.6-5.01c0.02-2.67-0.03-5.33-0.03-8c0-77.99,0.01-155.98-0.03-233.96
	c0-6.99,0.05-14.03-0.67-20.97c-2.85-27.8-19.15-40.13-45.73-39.09c-17.43,0.69-33.07,7.29-46.74,18.17
	c-11.21,8.92-22.06,18.29-33.36,27.08c-5.99,4.67-8.45,9.87-8.42,17.78c0.33,77.32,0.22,154.64,0.18,231.96
	c-0.01,13.72,1.42,11.93-12.46,12.02c-13,0.08-26,0.07-38.99,0c-8.05-0.05-8.16-0.13-8.17-8.32c-0.04-48.66-0.01-97.32-0.02-145.98
	c0-31.33-0.03-62.66-0.04-93.99c0-8.01-0.45-15.95-2.13-23.84c-3.3-15.51-13.2-25.04-28.84-27.71c-15.68-2.68-30.51,0.28-44.72,6.75
	c-19.62,8.93-36.3,22.18-52.38,36.26c-2.44,2.13-3.73,4.53-3.5,7.82c0.16,2.32,0.03,4.66,0.03,7c0,77.99,0.01,155.98-0.01,233.96
	c0,11.86,0.97,10.8-10.66,10.84c-12,0.04-24-0.16-35.99,0.08c-4.73,0.09-6.82-1.42-6.25-6.29c0.27-2.3,0.05-4.66,0.04-6.99
	c-0.06-83.98,0-167.97-0.26-251.96c-0.07-24.04-2.15-47.94-10.45-70.8c-1.58-4.35-0.66-5.75,3.76-6.71
	c13.66-2.96,27.25-6.23,40.8-9.66c5.09-1.29,8.04,0.11,10.11,4.96c4.63,10.81,7.84,21.92,8.5,33.71
	C2154.94,428.39,2155.25,431.92,2155.52,435.73z"/>
<path class="st0" d="M2703.98,704.71c-2.81,11.26-5.23,20.49-7.4,29.79c-1.2,5.15-3.3,7.79-9.42,7.57
	c-14.61-0.54-29.26-0.17-44.03-0.17c-0.35-1.37-0.95-2.35-0.74-3.1c6.77-24.32,7.93-49.26,7.96-74.26
	c0.14-111.62,0.25-223.24-0.04-334.86c-0.06-22.32-3.29-44.46-8.02-66.33c-1.4-6.47-4.22-12.47-6.62-18.38
	c2.01-2.29,4.41-2.42,6.66-2.92c13.33-2.94,26.73-5.59,39.95-8.91c8.51-2.14,9.19-1.23,10.92,7.27c3.99,19.66,6.67,39.46,6.92,59.44
	c0.5,40.98,0.25,81.96,0.36,122.95c0.01,3.2-0.59,6.5,0.78,10.15c3.85-1.32,5.98-4.42,8.61-6.71c18.33-15.93,38.49-28.47,62.3-34.52
	c41.28-10.49,94.88,0.8,125,41.96c17.93,24.49,29.58,51.25,34.17,81.02c7.05,45.68,6,91.03-8.9,135.22
	c-10.42,30.9-26.41,58.64-54.09,77.17c-36.65,24.52-76.3,27.74-117.13,11.56C2733.48,731.61,2717.47,721.36,2703.98,704.71z"/>
<path class="st0" d="M3755.36,702.36c-13.76,13.04-28.22,24.9-45.4,32.62c-47.3,21.25-92.54,17.69-135.05-12.58
	c-14.75-10.5-23.4-25.51-27.56-42.82c-5.72-23.77-5.52-47.64,2.45-70.94c9.74-28.47,30.32-47.26,56.36-60.63
	c24.07-12.36,50.19-17.26,76.82-20.16c19.6-2.14,39.26-1.89,58.92-1.97c8.3-0.04,8.47-0.12,8.42-8.06
	c-0.11-14.65,0.47-29.29-1.55-43.92c-3.1-22.56-19.66-39.79-42.43-43.96c-18.62-3.41-36.38,0.52-54.22,5.06
	c-18.36,4.68-34.79,13-49.76,24.53c-4.44,3.42-9.33,8.71-14.45,8.08c-5.25-0.65-7.46-7.83-10.93-12.19
	c-4.98-6.25-9.48-12.89-14.49-19.12c-2.91-3.62-1.95-5.49,1.65-7.75c28.67-18.09,58.94-32.23,92.46-38.86
	c21.39-4.23,42.88-5.77,64.6-3.94c12.04,1.01,23.8,3.54,34.75,8.58c31.57,14.51,49.3,38.79,50.28,74.06
	c1.08,38.67-0.62,77.31-1.51,115.96c-0.65,28.3-2.38,56.61-0.68,84.96c1.06,17.71,6.63,32.57,23,41.6c3.39,1.87,4.02,3.76,1.51,7.01
	c-7.33,9.49-14.59,19.05-21.56,28.81c-2.73,3.82-5.31,3.93-9.28,2.15c-18.16-8.12-31.67-20.64-38.68-39.6
	C3758.23,707.15,3758.43,704.57,3755.36,702.36z"/>
<path class="st0" d="M4426.77,567.98c0.48,34.53-3.76,66.05-16.5,95.95c-19.84,46.56-53.98,76.66-104.39,84.85
	c-52.24,8.48-98.74-3.23-134.06-45.71c-19.62-23.6-30.98-51.26-36.75-81.03c-8.28-42.69-8.86-85.65,3.55-127.62
	c15.67-53.01,48.33-91.87,103.45-104.96c53.89-12.79,103.32-1.9,142.35,40.65c19.4,21.15,30.15,46.77,36.02,74.62
	C4425,526.34,4427,548.18,4426.77,567.98z"/>
<path class="st0" d="M2001.89,573.34c-0.32,34.95-5.49,72.3-24.54,106.45c-24.07,43.18-61.1,66.65-110.22,70.71
	c-37.11,3.07-71.78-3.88-101.23-28.23c-26.72-22.1-44.81-50.04-53.08-83.79c-11.52-47.04-12.89-94.54-0.08-141.34
	c15.87-58,52.68-97.6,112.51-109.29c71.89-14.05,139.88,19.19,165.11,98.24C1999.06,513.31,2001.18,541.52,2001.89,573.34z"/>
<path class="st0" d="M3192.81,400.41c16.56-4.92,32.18-9.5,47.77-14.21c3.97-1.2,6.06,0.18,7.71,3.87
	c5.64,12.6,8.82,25.77,9.83,39.5c0.14,1.92-0.37,3.95,0.96,5.86c3.41-0.02,4.88-3,6.97-4.89c20.75-18.75,43.51-34.06,70.87-41.48
	c18.64-5.06,37.51-5.83,56.33-1.5c35.79,8.24,62.32,35.81,67.56,75.12c0.79,5.93,1.22,11.95,1.23,17.92
	c0.08,82.3,0.07,164.6,0.04,246.9c0,11.25,1.6,11.04-10.51,11.03c-11-0.01-21.99,0.02-32.99-0.01c-9.91-0.03-9.93-0.05-9.97-9.55
	c-0.03-10-0.01-19.99-0.01-29.99c0-65.31-0.01-130.62,0-195.92c0-10.67-0.36-21.29-2.15-31.86c-3.83-22.54-20.87-37.9-43.73-39.27
	c-8.11-0.49-15.93,0.82-23.63,3.16c-26.55,8.06-49.98,21.56-70.71,40c-5.13,4.56-7.3,9.34-7.28,16.33
	c0.23,78.3,0.17,156.6,0.13,234.91c-0.01,13.75,1.47,12.09-12.31,12.19c-11.33,0.08-22.66-0.21-33.98,0.11
	c-5.33,0.15-6.75-1.88-6.71-6.96c0.22-22.66,0.11-45.32,0.09-67.97c-0.06-67.64-0.17-135.28-0.19-202.92
	c0-17.57-3.1-34.38-11.26-50.12C3195.36,407.74,3194.41,404.51,3192.81,400.41z"/>
<path class="st0" d="M1625.85,663.8c10.54,13.66,20.48,26.53,30.29,39.24c-1.11,3.38-3.96,3.97-6.15,5.27
	c-33.58,19.87-70.09,30.6-108.81,33.2c-42.03,2.82-81.66-5.3-116.47-30.34c-29.78-21.42-52.37-49.09-68.25-82.13
	c-14.18-29.51-20.98-61.07-23.52-93.42c-2.88-36.62-2.52-73.26,5.6-109.36c10.94-48.61,32.23-91.65,69.91-125.2
	c39.23-34.92,85.45-48.62,137.59-43.81c29.27,2.7,56.95,10.04,82.2,25.43c5.34,3.26,13.25,5.77,14.32,11.39
	c0.97,5.11-6.27,9.42-9.88,14.07c-4.08,5.26-8.51,10.25-12.79,15.35c-7.24,8.62-5.64,8.35-14.95,2.6
	c-14.22-8.77-29.03-16.38-45.26-20.64c-42.09-11.05-81.4-6.14-115.67,22.38c-22.21,18.49-35.03,43.25-43.35,70.5
	c-6.55,21.44-10.02,43.5-11.39,65.78c-2.31,37.29-2.75,74.55,5.06,111.43c4.24,20.02,11.06,38.95,21.56,56.61
	c20.74,34.88,50.87,55.93,91.16,61.1c32.62,4.19,64.48,1.06,94.37-14.17C1609.73,674.84,1617.46,669.66,1625.85,663.8z"/>
<path class="st0" d="M4063.53,707.79c1.8,10.02,3.13,19.23,5.22,28.26c1.21,5.24-1.08,7.02-5.31,8.81
	c-17.86,7.55-36.57,9.6-55.71,9.42c-10.72-0.1-21.28-1.32-31.52-4.51c-20.29-6.3-33.46-19.78-39.74-40.05
	c-3.69-11.92-4.38-24.16-4.37-36.53c0.04-73.96,0.02-147.93,0.02-221.89c0-2.33-0.19-4.68,0.03-6.99c0.45-4.7-1.35-6.54-6.22-6.42
	c-10.99,0.26-21.99,0.14-32.98,0.06c-8.05-0.06-8.11-0.13-8.17-8.31c-0.07-9-0.06-17.99,0-26.99c0.06-8.44,0.11-8.48,8.97-8.53
	c9.66-0.05,19.33-0.14,28.98,0.04c4.03,0.07,5.79-0.93,6.07-5.49c1.57-25.58,5.45-50.99,6.14-76.65c0.11-4,1.22-5.91,5.32-6.77
	c16.52-3.47,32.97-7.26,50.05-11.07c0.69,10.43-1.88,19.82-2.65,29.33c-1.71,21.27-2.21,42.56-2.73,63.87
	c-0.13,5.3,1.79,6.85,6.93,6.8c23.32-0.21,46.64-0.12,69.96-0.05c3.24,0.01,6.59-0.73,10.57,1.17c-4.64,13.06-9.36,26.13-13.9,39.26
	c-1.36,3.93-4.44,3.38-7.37,3.38c-17.32,0.03-34.65,0.02-51.97,0.02c-14.12,0-14.12,0-14.12,14.43c0,66.63,0.02,133.27-0.03,199.9
	c-0.01,8.01,0.22,15.98,1.26,23.93c3.17,24.29,11.33,34.27,39.68,37.4c8.34,0.92,16.59-0.81,24.73-2.58
	C4054.53,710.2,4058.35,709.11,4063.53,707.79z"/>
<path class="st0" d="M4518.11,400.42c16.92-5,32.55-9.55,48.13-14.27c4.22-1.28,6.07,0.7,7.55,4.18
	c4.58,10.79,8.16,21.83,8.98,33.61c0.39,5.62,0.79,11.24,1.19,16.98c3.73-0.02,4.55-2.97,6.09-4.78
	c9.79-11.44,20.31-22.02,32.9-30.44c19.2-12.85,40.31-18.69,63.35-17.65c1.33,0.06,2.68,0.06,3.99,0.25
	c8.69,1.25,9.34,2.34,6.23,10.87c-5.47,15.01-11.03,29.99-16.47,45.01c-1.36,3.75-2.5,5.5-7.7,4.58
	c-18.8-3.32-36.43,0.35-52.02,11.91c-4.01,2.98-7.74,6.34-11.82,9.22c-16.3,11.53-22.93,27.98-24.12,47.16
	c-0.43,6.98-0.61,13.98-0.61,20.98c-0.05,63.65-0.03,127.31-0.03,190.96c0,2,0.01,4,0,6c-0.07,9.77-0.07,9.81-9.85,9.84
	c-12.33,0.04-24.66-0.1-36.99,0.06c-4.49,0.06-7.03-1.16-6.48-6.2c0.25-2.3,0.04-4.66,0.04-6.99c0-84.98-0.03-169.96,0.02-254.95
	c0.01-16.69-0.86-33.28-3.96-49.73C4524.86,418.15,4521.97,409.68,4518.11,400.42z"/>
<path class="st0" d="M3086.09,561.52c0,54.95,0,109.9,0,164.85c0,2.33-0.15,4.67,0.02,6.99c0.29,3.99-1.69,5.23-5.38,5.21
	c-15.32-0.08-30.64-0.12-45.96,0c-4.06,0.03-5.22-1.91-5.02-5.51c0.11-1.99,0-4,0-5.99c0-107.23,0-214.47,0-321.7
	c0-0.33-0.01-0.67,0-1c0.22-11.16-1.75-9.72,10.75-12.08c11.44-2.16,22.96-3.87,34.44-5.79c11.11-1.87,11.14-1.88,11.14,9.18
	C3086.1,450.95,3086.09,506.23,3086.09,561.52z"/>
<path class="st0" d="M3060.81,243.94c26.02-0.01,43.2,17.93,43.88,44.06c0.51,19.75-14.79,43.37-43.71,43.58
	c-24.86,0.18-43.61-18.45-43.95-43.39C3016.65,259.73,3039.83,242.47,3060.81,243.94z"/>
<path class="st1" d="M820.42,303.34c-7.45,14.19-13.88,26.53-20.41,38.83c-46.36,87.33-92.71,174.67-139.2,261.93
	c-2.49,4.68-3.01,9.35-3.01,14.39c0.04,58.31,0.04,116.61,0.02,174.92c0,11.55,1.2,10.92-10.6,10.92c-13.99,0-27.99,0.01-41.98,0
	c-12.04-0.02-10.46,0.61-10.47-10.98c-0.04-58.31-0.14-116.61,0.12-174.92c0.04-7.96-1.78-14.8-5.52-21.75
	c-50.95-94.7-101.72-189.48-152.48-284.28c-1.36-2.54-3.61-4.89-3.02-8.18c1.86-1.18,3.9-0.85,5.87-0.85
	c19.99-0.02,39.98,0.13,59.97-0.11c5.25-0.06,8.37,1.24,10.85,6.35c30.13,61.96,60.59,123.77,90.74,185.73
	c2.81,5.78,7.67,9.83,10.47,15.68c5.44,11.37,9.16,23.44,14.92,34.65c0.59,1.15,1.34,2.22,2.51,4.13
	c4.51-8.41,9.07-15.92,11.83-24.38c1.97-6.02,4.26-11.99,7.81-17.24c11.81-17.47,19.99-36.84,29.3-55.6
	c23.25-46.81,46.23-93.74,69.04-140.76c2.97-6.12,6.26-8.88,13.48-8.67C779.93,303.72,799.22,303.34,820.42,303.34z"/>
<path class="st1" d="M2700.46,570.18c0-26.99,0.13-53.97-0.11-80.95c-0.05-5.37,1.39-9.62,4.83-13.59
	c11.48-13.27,24.98-23.98,40.78-31.58c8.44-4.06,17.43-6.58,26.98-6.42c10.65,0.18,21.25,0.44,31.86,1.88
	c28.26,3.82,46.25,20.31,57.15,45.63c5.85,13.6,8.29,28.09,9.44,42.72c2.73,35.03,2.28,69.9-7.21,104.09
	c-3.48,12.55-8.67,24.39-15.08,35.79c-9.6,17.07-23.83,27.98-42.91,31.23c-39.41,6.72-73.95-2.4-101.28-33.27
	c-3.38-3.82-4.56-7.64-4.53-12.57C2700.55,625.49,2700.46,597.83,2700.46,570.18z"/>
<path class="st1" d="M3753.8,609.16c0,12.66,0.02,25.32-0.02,37.98c-0.01,3.33-0.21,6.59-2.01,9.64
	c-20.57,34.98-50.33,54.51-91.67,53.25c-27.94-0.85-46.4-18.92-49.83-46.57c-1.87-15.08-1.26-29.96,2.52-44.61
	c4.98-19.33,17.43-32.52,35.04-41.26c16.7-8.28,34.65-11.91,52.98-13.12c16.27-1.07,32.63-0.67,48.95-1.19
	c5.24-0.16,6.98,1.71,6.67,6.94c-0.77,12.97-1.09,25.96-1.59,38.95C3754.5,609.16,3754.15,609.16,3753.8,609.16z"/>
<path class="st1" d="M4367.64,580.77c-0.63,20.35-1.27,43.31-7.25,65.73c-3.13,11.72-8.08,22.56-15.34,32.26
	c-14.7,19.62-35.13,27.79-58.9,28.73c-40.21,1.59-71.65-20.74-83.91-59c-5.75-17.92-8.2-36.38-9.18-54.98
	c-1.44-27.27-1.9-54.6,1.41-81.82c1.45-11.93,3.69-23.74,9.07-34.6c12.37-24.97,31.88-40.55,59.98-44.19
	c33.07-4.28,61.4,3.52,81.68,32.1c8.31,11.72,12.16,25.04,15.26,38.72C4366.03,528.21,4366.93,553.17,4367.64,580.77z"/>
<path class="st1" d="M1939.28,575.8c-0.79,15.59-0.27,31.94-2.79,48.13c-1.79,11.53-3.84,22.97-8.16,33.86
	c-12.96,32.7-39.27,50.24-74.4,49.77c-43.08-0.58-73.34-26.25-83.31-70.47c-6.13-27.16-6.9-54.74-6.7-82.39
	c0.14-18.97,0.33-37.95,4.44-56.63c6.02-27.29,20.06-48.73,46.48-59.65c21.61-8.94,44.18-9.3,66.38-1.61
	c20.37,7.06,33.34,22.43,43.26,40.79c7.88,14.57,11.63,30.42,13.6,46.67C1940.14,541.15,1940.93,558.12,1939.28,575.8z"/>
</svg>
